<svg height="600pt" viewBox="0 0 600 600" width="600pt" xmlns="http://www.w3.org/2000/svg"><path d="m0 0h600v600h-600z" fill="#fefefe"/><path d="m270.17 119.7c-8.09-.67-15.05 2.12-22.13 5.63l2.76 1.32c-3.39 2.2-6.8 4.34-10.25 6.44.71-1.49 1.42-2.99 2.13-4.48-2.61 1.39-5.15 2.76-7.61 4.4 4.87-5.09 10.22-8.42 16.74-11.01 6-2.59 11.9-3.29 18.36-2.3z" fill="#aba9a6"/><path d="m270.17 119.7c3.89.96 8.32 3.39 9.63 7.44 2.12 5.84 1.98 12.46-.48 18.17-2.73 6.28-7.37 12.03-11.86 17.14-1.73-1.3-3.57-2.46-5.5-3.46-.32.71-.64 1.42-.94 2.14-.62.2-1.23.39-1.84.58.48 2 .98 3.99 1.51 5.98-8.31 6.38-17.89 10.59-28.58 9.09-5.11-.66-9.33-3.8-11.37-8.54-2.39-5.46-1.07-12.15.95-17.54 2.75-7.2 7.68-12.66 13.38-17.69 2.46-1.64 5-3.01 7.61-4.4-.71 1.49-1.42 2.99-2.13 4.48 3.45-2.1 6.86-4.24 10.25-6.44-.92-.44-1.84-.88-2.76-1.32 7.08-3.51 14.04-6.3 22.13-5.63z" fill="#464647"/><path d="m272.45 122.76c-3.98.7-7.86.78-11.84.09 4.22-1.48 7.62-1.82 11.84-.09z" fill="#aba9a6"/><g fill="#fefefe"><path d="m271.77 127.24c3.31 1.64 3 4.4 3.6 7.56-6.49 3.6-13.24 6.64-20.1 9.45.66 1.28 1.33 2.57 2 3.84-.95.12-1.9.25-2.85.38-2.22-6.3-2.14-12.58-1.9-19.16 5.6-2.48 13.41-4.73 19.25-2.07z"/><path d="m248.81 131.95c.17 4.99 1.2 9.32-1.95 13.67-.65 1-1.32 1.98-2.02 2.94-5.43 3.77-11.81 6.3-17.97 8.64 3.12-11.23 11.84-19.92 21.94-25.25z"/><path d="m274.74 139.8c-2.67 5.62-5.21 11.17-8.81 16.28-2.67-2.69-4.86-5.61-6.83-8.84 5.06-2.81 10.21-5.41 15.64-7.44z"/><path d="m246.86 145.62c2.3 3.65 4.84 7.04 7.63 10.32-.17.61-.35 1.22-.53 1.83-2.95-3.16-5.97-6.25-9.12-9.21.7-.96 1.37-1.94 2.02-2.94z"/><path d="m245.75 154.02c3.8 2.8 6.7 6.95 9.94 10.37-.86.4-1.72.8-2.58 1.2-.72-2.98-1.5-5.17-3.82-7.29-.76 3.26-.38 7.79-2.22 10.63-3.12 1.3-6.77 1.54-10.11 1.6-3.07-.02-6.6-.37-9.03-2.44-1.67-1.45-2.09-3.54-1.85-5.65 3.36-2.27 7.45-3.51 11.07-5.33 2.66-1.16 5.66-2.99 8.6-3.09z"/></g><path d="m261.96 158.99c1.93 1 3.77 2.16 5.5 3.46 3.28 3.9 5.92 8.99 9.9 12.17 1.53.33 3.28 0 4.81-.23-8.95 3.71-17.9 3.46-27.39 3.5 4.49-.39 8.99-.47 13.49-.79-2.13-3.63-4.47-6.59-7.58-9.41-.53-1.99-1.03-3.98-1.51-5.98.61-.19 1.22-.38 1.84-.58.3-.72.62-1.43.94-2.14z" fill="#aba9a6"/><path d="m202.71 170.69c-1.93 5.01-2.23 10.5.34 15.32 2.34 2.66 5.27 3.94 6.56 7.49-5.71.89-11.82 1.95-17.6 1.57-2.29-.49-4.59-.85-6.94-.83-3.05.45-6.09 1.12-9.14 1.52-2.46-.58-4.78-1.15-6.47-3.18-3.75-4.28-3.98-11.27-8.52-14.51-2.7-2.19-5.77-2.71-9.08-3.36 4.33 4.1 8.04 8.4 9.9 14.2.41.95-.09 1.56-.33 2.47-2.11-.83-4.23-1.67-6.38-2.4.92.02 1.84.04 2.76.04-1.54-5.2-4.36-9.63-6.81-14.39 8.72-1.74 17.4-.89 26.19-1.95 8.49-1.01 16.99-1.5 25.52-1.99z" fill="#f7d5a4"/><path d="m214.28 172.41c.94 4.26 3.57 9.91.99 13.93-.38.75-.78 1.5-1.18 2.24l-1.51.35c-.79.22-1.56.45-2.33.69.65 5.47 2.53 10.67 3.94 16.12 2.82 11.08 6.27 21.97 9.02 33.06.94 3.87 2 7.67 3.7 11.29-.44-6.69-2.55-12.55-4.09-19.01-1.79-7.32-3.8-14.5-5.25-21.89l.86-.63c1.78 3.53 2.89 7.23 3.83 11.06.65 2.5 1.63 4.88 2.76 7.21 2.05-.04 4.1-.06 6.15-.1l.18 1.12c-2.01 1.25-4.11 2.36-6.18 3.5.32.29.64.58.96.87 4.06-1.29 7.83-1.95 12.08-2.11.56-2.97 1.17-6.05 1.35-9.07 2.42 2.56 4.53 4.12 7.95 5.09.52 7.55-.05 15.09.64 22.64 8.13 2.23 15.5 5.96 23.33 8.99-.15 2.49-.63 5.31.02 7.75.87 2.16 2.53 4.08 3.92 5.92-.83.89-1.66 1.77-2.49 2.65-4.11-4.56-3.96-9.77-5.97-15.26-.16 3.54-.6 6.92 1.18 10.16 2.03 3.51 4.82 6.53 6.96 10-2.82-.38-5.6-.85-8.39-1.4-.26-1.61-.54-3.22-.82-4.82-.51 3.13-.08 7.42-1.95 10.02-1.86 0-3.8-.31-5.49-1.12-1.77-2.51-.66-6.64-.31-9.48-4.4-.82-9.33-1.83-13.77-1.01-1 1.62-.5 4.05-.61 5.88.23 3.86-1.24 7.17-1.72 10.9-.19 1.47.67 3.38 2.28 3.6 6.22 1.23 12.65 1.76 18.98 2.04-.05 1.05-.1 2.09-.16 3.13-3.21-.11-6.42-.22-9.64-.33-1.3 6.49-2.94 13.92-1.3 20.47.74 3.44 3.57 5.11 6.66 6.18 3.76 1.28 8.21-.08 11.92.35 2.78.84 5.36 2.86 8.23 3.57 3.9.67 8.39-.37 12.24.64 3.3.83 6.49 1.97 9.85 2.61 7.56 1.38 15.47 4.14 23.18 3.77 1.84-2.68 3.74-5.33 5.67-7.95 2.89 2.57 2.68 6.03 3.44 9.58 4.68 1.27 9.4 2.35 14.21 2.98-.78-5.06-5.56-5.46-9.39-7.62.97-3.93 1.24-7.27.4-11.26 7.47.13 14.94.03 22.41.31.32 1.96.66 3.91 1 5.86 1.45.01 2.9.03 4.35.04-.46-2.51.07-5.36-2.4-6.89-5.92-4.62-15.37-2.46-22.72-4.02-.39-2.16-.8-4.32-1.17-6.49-3.65-1.13-6.2-.25-9.7.69-1.56-1.11-2.3-2.75-4.28-3.29-.37 2.73-.69 5.43-.93 8.17-.97-3.07-.82-7-2.43-9.79-3.17-2.79-7.98-4.02-11.98-5.15-.33 2.82-.34 5.67-.74 8.48-.28 1-.56 2.01-.84 3.01-.83-.37-1.65-.76-2.47-1.16l-.31-1.09c.28-3.91.5-7.8.19-11.73-.63 2.28-1.14 4.59-1.37 6.94-2.87-.49-5.65-1.01-8.56-1.24-1.35.18-2.97.31-4.14 1.06-1.01 1.2-1.78 2.61-2.61 3.94-.43.06-.85.12-1.28.19-2.38-2.73-4.76-6.94-8.76-7.13-5.21-.49-10.32-.77-15.38-2.26 2.12-2.92 2.92-5.02 3.37-8.63 3.39.19 5.96.9 9 2.33 3.08-.88 5.43-.21 8.36.89.02-.87.05-1.73.08-2.59.88.76 1.76 1.52 2.64 2.29.56-2.8 1.23-5.57 2-8.33 1.55 1.79 3.82 3.09 3.4 5.77-.86 2.62-3.2 5.48-5.71 6.69-4.82.53-9.82-.43-14.69-.29 7.48 1.16 14.61 2.75 22.15 3.03 1.55.68 3.11 1.34 4.68 2 .08-2.44.12-4.54-.96-6.78-.52 1.87-.97 3.76-1.42 5.66-.44-1.77-.89-3.54-1.3-5.31.09-.57.2-1.14.31-1.71 4.55 1.34 9.13 2.4 13.87 2.8-1.36-2.25-2.81-4.44-4.5-6.46.72.19 1.44.38 2.15.56 3.44 3.61 7.68 6.3 12.55 7.45 1.36.42 2.25-.21 3.46-.69l1.61-.8c4.52 2.19 6.44 7.03 11.13 8.23 5.63 1.61 11.38 2.82 17.16 3.7 0-1.47.01-2.95.01-4.42-5.94-2.33-12.67-2.16-18.18-5.28 6.17 0 13.14 4.44 18.75 1.8.81-.39 1.61-.79 2.4-1.21 3.61-1.47 7.29-2.75 11-3.95l1.61-.49c1.04-.24 2.08-.46 3.13-.66.68-4.24 1.32-8.51.8-12.8-.45-3.59-1.75-7.17-3.1-10.5-1.26-3.47-3.54-6.07-5.96-8.76-2.06-2.2-2.96-4.86-3.83-7.67 1.22.85 2.43 1.71 3.62 2.61 1.83 1.35 3.57 3.11 5.89 3.51 3.1.65 6.2 1.13 9.2 2.19-2.62.18-5.28.24-7.9.19-.21 1.51-.42 3.01-.64 4.51 3.46 3.02 7.48 4.89 11.63 6.76-1.56.73-3.14 1.39-4.77 1.92l-1.75.34c.16 2.73.42 5.44.82 8.15 2.52.98 5.02 2.02 7.48 3.13-2.25.12-4.51.22-6.76.25l-1.72.03c.14 2.53.2 4.94 1.31 7.29 2.27 1.19 4.59 2.29 6.9 3.42.28 1.28.55 2.56.81 3.84.17 1.61.33 3.22.5 4.82.09 3.15-.28 6.24-.45 9.38-3.23.83-5.02 2.46-7.17 4.93 2.01.37 4.02.6 6.03.92.38-1.95.75-3.9 1.14-5.85.6 4.33 1.33 8.55.9 12.95-.85-1.58-1.67-3.18-2.49-4.79-1.89-.33-3.8-.65-5.7-.95l-1.92-.29c.08 3.05.21 6.04 1.1 8.98 2.73.86 5.92 1.32 8.36 2.81 2.1 1.28 4.17 2.61 6.32 3.8.14 2.79.26 5.59.4 8.38 5.79 1.72 11.42 4.21 17.35 4.62 11.31.82 21.75-.92 32.89-2.25 4.66-.56 9.28-1.39 13.92-2.09 2.56-.29 5.12-.37 7.68-.39-3.32 2.93-7.21 4.79-11.31 6.38 2.63-.17 5.55-.59 8.07.26 3.93 1.25 6.98 3.33 11.22 3.53 5.86.32 11.77-.39 17.64-.44-.82 4.99-2.39 10.66-1.38 15.66 1.01 4.69 2.44 9.29 5.7 12.93.17-1.54.12-2.89-.1-4.42.96-.32 1.95-.64 2.91-.96-1.21-.25-2.46-.44-3.63-.82-1.58-1.41-2.34-3.88-3.09-5.83 1.59-2.45.21-4.14-.3-6.71-.94-3.22-.05-7.13 1.69-9.94 2.25-1.49 6.2-1.96 7.56.96 4.84 8.43 3.78 19.84 1.25 28.85-5.51 1.55-11.13 2.63-16.79 3.46-1.3.15-2.8.37-4.08.04-.89-1.12-1.61-2.39-2.4-3.59 2.26.96 4.82 2.27 7.31 1.43 1.3-1 2.38-3.01 1.91-4.68-.99-1.54-2.34-2.89-3.51-4.31 1.17.42 2.33.84 3.5 1.26-.57-4.76-1.24-9.56-1.51-14.34.68-2.79.61-5.16.02-7.95-2.35.76-5.29 1.29-7.22 2.89-1.43 2.84.51 8.31-2.77 10.23-2.9 1.65-7.48-.05-10.56-.67-5.73-1.66-10.65.19-16.37-.11 2.11-.47 4.13-1.16 6.17-1.86-1.07-.2-2.15-.36-3.23-.48-2.97-.42-6.01-.56-8.93-1.23-2.9-.74-5.41-2.89-8.33-3.45-2.8-.2-5.7.23-8.5.47-.63-1.37-1.25-2.74-1.86-4.11-3.03.47-9.05.07-10.73 3.08-.85 4.43-.04 9.29-.2 13.81.74.29 1.48.58 2.22.87-6.24 1.95-13.09 2.77-19.58 3.58-2.81-1.52-5.5-3.18-7.87-5.35-.77-.77-1.7-1.08-2.77-1.17-1.97-.29-3.94-.57-5.91-.83 3.37-.66 7.04-.86 10.26-2.08 3.15-1.64 2.94-5.42 3.39-8.46 1.26-.13 2.52-.28 3.77-.46-6.31-2.36-12.62-2.58-19.19-3.64-3.87-.59-7.72-1.3-11.6-1.82.9 1.92 1.87 3.81 2.76 5.74 1.56 3.7 2.97 7.08 6.2 9.66-.42.32-.85.64-1.27.96.24.92.48 1.83.69 2.75.22 1.46.37 2.92.5 4.39.64-.89 1.28-1.77 1.92-2.65 1.62-.2 3.24-.42 4.87-.57-2.45 3.18-3.11 4.88-3.03 8.91-1.27 5.11.49 11.1 1.91 16.04 2.77-5.7 2.85-9.47.01-15.19 1.63.8 3.04 1.48 3.5 3.42 1.34 4.02.16 7.53-1.75 11.08-1.52 2.64-1.85 5.3-1.9 8.3 2.32 0 4.64-.11 6.96-.16-2.44.9-5.02 1.83-7.22 3.22.94.39 1.89.78 2.86 1.1-3.78 2.72-2.81 6.49-3.27 10.58-.97 7.65-3.05 15.61-7.09 22.25-3.88 6.5-11.02 10.99-17.51 14.56-5.35 3.02-11.76 2.42-17.35.45-6.67-2.5-12.47-7.72-16.73-13.33-5.18-6.91-9.29-14.65-12.19-22.78-5.74-15.78-7.96-32.79-5.37-49.44-.68 1.93-1.05 4.59-2.48 6.11-2.71 2.05-7.16 1.94-10.39 1.84-7.06-.47-14.06-.86-21-2.44 1.15-1.8 2.27-3.61 3.42-5.4-2.1 1.05-4.06 2.33-6.3 3.13-1.75-.1-3.51-.76-5.19-1.24-.46-2.27-.82-4.63-1.62-6.81-2.42-2.65-5.3-4.68-8.35-6.55-1.33 1.9-2.53 3.89-3.76 5.85-1.6-.91-3.23-1.85-4.88-2.66-.17-3.83.3-8.08-.78-11.78-1.38-2.89-4.07-5.28-6.23-7.62-1.81 1.95-3.62 3.89-5.47 5.8-2.42-3.35-5.24-5.8-2.39-10.02 5.91-.81 12.43-.81 17.56 2.66 5.84 5.19 13.06 8.69 20.79 9.9 5.44.95 10.96.7 16.13-1.34 4.53-1.86 8.75-3.83 11.58-8.02-2.68.26-5.26.65-7.75 1.72-6.61 3.21-13.36 4.8-20.73 3.54-5.02-.56-8.34-3.72-13.16-4.87-1.82-.51-3.59-.6-5.46-.8-.87-.81-1.73-1.62-2.6-2.43 2.1-.2 4.21-.35 6.31-.54-6.71-.08-13.35-.95-20.07-.86-6.53.06-12.98-.91-19.38-.28-.99 3.14-1.5 6.16-3.36 8.93-2.27 3.32-4.93 6.36-7.18 9.69.9 3.24 1.44 6.53 2.14 9.81-3.17 5.67-8.07 9.4-12.26 14.18-.82 2.69-.99 5.92-3.16 7.89-8.17 7.52-17.43 11.36-26.85 16.7 1.37.45 2.74.9 4.11 1.36-4.92 3.6-10.15 5.17-16.19 5.59-8.07.43-16.78.96-24.69-.74-3.78-.83-7.48-.82-11.31-.47-3.24-1.38-5.04-2.81-7.01-5.69-2.7-.53-6.02-.6-8.39-2.05-1.35-1.42-1.77-3.82-2.35-5.65-.65-4.46-3.85-6.13-6.99-8.76-1.74 1.4-3.48 2.78-5.24 4.15-2.25-2.2-3.89-3.98-4.14-7.3.34-2.23 1.25-5.1.48-7.29-1.68-3.36-4.47-6.25-6.79-9.19-1.55 1.3-3.11 2.59-4.69 3.87-1.1-1.74-2.72-3.61-3.12-5.65.17-3.21 1.98-6.33 2.08-9.54-.67-3.87-3.07-7.58-4.82-11.07-1.99.55-3.98 1.1-5.97 1.65-.87-2.04-2.38-4.46-2.27-6.71.68-3.38 3-6.61 3.43-10.05.01-3.13-.95-6.32-1.62-9.36-2.42-.98-4.84-1.97-7.26-2.97-.07-2.39-.38-4.99.15-7.34 1.13-3.41 3.92-6.31 5.13-9.68.59-2.36.76-5.23-1.01-7.15-1.84-2.63-5.26-4.87-4.74-8.47.23-5.54 5.94-10.51 9-14.9-1.47-3.19-3.69-6.61-4.09-10.12.32-6.25 7.47-10.86 11.12-15.5-6.7-.81-13.82.37-20.58.79-.16-2.86-.24-5.63.62-8.4 1.66-5.73 5.62-10.33 8.63-15.46 3.07-4.98 6.52-11.03 11.4-14.42 3.05-1.42 7.55.08 10.75.53-2.25 2.34-4.51 4.67-6.73 7.04 2.81-2.07 5.65-4.4 8.75-6.03 3.44-1.79 7.15-2.21 10.92-2.83-.44-.29-.88-.58-1.32-.87-.08-1.82-.2-3.6-.78-5.34-3.29-1.25-6.63-2.36-9.9-3.68 8.93-5.88 20.81-6.4 31.01-4.33 11.75 2.46 21.28 9.02 29.83 17.17 11.96 12.31 18.62 26.79 25.33 42.29.66 1.38 1.29 2.73 2.7 3.5 1.69-.17 3.4-.71 5.05-1.1l.86-.17c7.49-1.49 15.22-2.1 22.88-3.04 6.18-.68 12.57-1.43 18.78-.96 1.79.3 3.87.24 4.6 2.25 3.88 8.05 3.2 18.48 4.08 27.25.84 7.12.46 14.26 1.43 21.37.45 2.82-.83 4.93-1.29 7.59-.07 3.3 1.51 6.63 1.46 9.94-.36 1.84-1.47 3.56-2.22 5.27-1.46 2.93-2.06 6.04-2.61 9.24 2.09-.94 5.16-1.76 6.26-3.96 2.08-3.95 2.25-8.1 2.06-12.47 9.17.29 18.28 1.41 27.46 1.73-.64-2.9-1.05-6.38-2.69-8.9-1.56-2.35-4.66-2.21-6.83-.86-1.55 1.45-2.59 3.61-3.62 5.45l-.72-.79c-.44-1.67-.83-3.35-1.22-5.03-.56-5.29.59-9.66-1.63-14.56-.46 2.8-.76 5.62-.99 8.44-.52-3.77-1.2-7.4-1.02-11.23.91.6 1.83 1.2 2.74 1.81.63-.78 1.26-1.56 1.89-2.33 2.19.71 4.34 1.51 6.55 2.17-1.79.78-4.06 1.38-5.45 2.78-2.11 3.66-.8 8.73 3.53 9.98 2.65 1.17 5.69-.66 5.81-3.54.21-4.16.71-7.93 1.65-11.98-2.15-.1-4.41-.04-6.51-.51-2.15-1.75-3.03-5.35-4.18-7.83-2.85-1.04-5.96-1.89-8.57-3.45-.93-.55-1.18-2.09-1.54-3.04 2.52 1.33 5.24 3.52 8.25 2.75 3.59-.65 4.71-4.91 3.66-7.97-1.16-3.45-4.54-5.37-8.11-4.89-1.65.61-3.1 1.87-4.53 2.88-1.62-.23-3.82-1.2-5.33-.3.28 3.48 1.85 6.85 1.89 10.31-.76 1.11-1.56 2.18-2.41 3.24-1.48-7.86-2.35-16.44-1.69-24.44l1.4.63c.39 1.85.71 3.7 1.03 5.56 9.53-.24 19-.9 28.54-.64 4.02.22 7.24-2.47 11.29-2.97.84-2.78 1.66-5.57 2.47-8.36-5.54-2.3-11.02-3.89-17-4.59-.02 1.36-.03 2.71-.07 4.07-5.27-.06-10.5-.54-15.75-.97 5.18 1.27 10.38 1.72 15.71 1.73l-.13 1.39c-2.11.86-4.4 1.59-6.68 1.81-4.25.27-7.42-3.08-11.72-1.87-.81.68-1.61 1.36-2.41 2.05-.43-.79-.85-1.59-1.3-2.38-2.62-2.25-6.39-1.44-9.58-1.44-.16-.77-.32-1.54-.49-2.31 3.02-.21 6.04-.49 9.05-.8-.28-1.34-.55-2.69-.82-4.04-3.14.05-6.28.14-9.41.32-.71-1.84-1.58-3.61-2.51-5.35 3.44-.49 6.87-1.02 10.28-1.7-.48-.78-.98-1.54-1.48-2.31-2.5.24-4.91.69-7.38 1.08-1.38-.1-2.76-.21-4.14-.33-1.41-3.25-1.92-5.42-1.3-8.96 1.46.2 2.91.41 4.36.62-.35-1.47-.78-3.03-.83-4.54.45-1.76 1.59-3.42 2.65-4.88.64-.81 1.3-1.61 1.98-2.39-1.73-.31-3.46-.61-5.18-.95 1.18-.4 2.37-.79 3.55-1.17-.1-3.84-.61-7.42-1.58-11.13-.24-.98-.48-1.95-.7-2.93-2.29-.07-4.58-.12-6.86-.2-2.89-.84-5.77-1.77-8.53-2.97-1.24-.76-2.44-1.58-3.65-2.39-1.62-1.07-3.27-2.1-4.93-3.11-.99-.61-1.95-1.24-2.92-1.88 2.35-.02 4.65.34 6.94.83 5.9 5.25 11.86 7.75 19.85 7.3-.68-2.99-1.35-5.94-2.25-8.87-1.29-3.55-4.22-4.83-6.56-7.49-2.57-4.82-2.27-10.31-.34-15.32 4.22-.44 7.78-.43 11.57 1.72z" fill="#464647"/><path d="m217.06 171.34c1.61 1.09 3.69 2.1 4.84 3.7 1.45 2.69 1.71 6.1 3.27 8.75 1.25 1.98 4.5 1.82 6.57 1.87 4.4.06 8.88-.18 13.25.34 1.28.13 2.29.76 3.31 1.48-4.46.85-9.14 2-13.69 2.05l-1.27-.27c-1.99-.99-4.18-2.78-6.43-2.96-3.3-.01-5.28 2.92-7.35 5.04-1.38.39-2.77.68-4.16.97-.43-1.25-.85-2.5-1.31-3.73.4-.74.8-1.49 1.18-2.24 2.58-4.02-.05-9.67-.99-13.93.92-.36 1.85-.71 2.78-1.07z" fill="#f7d5a4"/><path d="m245.28 172.73c-3.42 1.59-6.83 1.45-10.51 1.07 3.54-.95 6.86-1.33 10.51-1.07z" fill="#e5e4e3"/><path d="m311.29 172.64c8.93-.22 17.88-.25 26.81-.08-7.12.36-14.23.03-21.35.53-3.01.08-5.94.66-8.85 1.39 16.02.75 32.07 1.7 48.09 1.49 12.36.15 24.57 1.58 36.97.69-1.32-.55-2.65-1.09-3.99-1.58 6.12.61 11.86-.05 18.03.01 9.28-.06 18.47.82 27.72 1.4 8.55.64 17.95 1.12 25.68 5.12 7.61 3.99 14.28 9.17 17.65 17.34 5.25 12.65 6.29 27.4 4.61 40.9-1.53 20.11-5.07 39.9-9.07 59.65-.95 4.34-2.31 8.57-3.21 12.92 4.64-4.03 4.79-9.27 6.12-14.89 3.46-18.57 7.09-37.71 8.13-56.58.22-10.88.79-21.7.5-32.58l1-1.87c2.01 5.39 3.1 10.49 2.51 16.28-.31 3.49-.44 6.98-.31 10.49 3-1.03 5.59-2.33 8.23-4.07-.91 5.06-2.12 10.06-3.12 15.1-2.17 12.24-2.8 25.13-5.83 37.12-1.68 6.73-1.92 13.37-4.09 19.9-.81 2.53-1.43 5.12-2.11 7.69-2.7 6.91-6.8 12.48-10.73 18.68-2.16 3.36-3.59 7.07-5.53 10.54-1.57 2.78-3.82 4.6-6.14 6.69-2.51-1.81-4.93-2.95-5.36-6.35-.48-4.67 1.27-9.56 1.58-14.26.54-5.13 2.01-9.76 1.4-14.96.56.13 1.13.25 1.7.38-1.16-2.55-1.45-4.21-1-7.03 1.37-8.86 1.12-17.82 2.46-26.68 1.2-8.65 2.2-17.27 1.88-26.03.1-3-.31-7.21 1.48-9.77 1.86-1.62 5.15-1.69 7.5-2.19.57 7.25-.02 14.39-.96 21.57-1.6 12.43-2.61 24.97-4.77 37.3-.91 5.37-.51 10.71-1.81 16.03-.95 3.87-.91 7.31-.19 11.21 2.32-3.14 3.68-6.01 3.83-9.94.47-8.78 3.81-16.61 5.15-25.21 1.18-7.41 2.4-14.79 3.72-22.18 1.25-6.87 1.69-13.81 2.49-20.73.79-7.41 4.38-13.04 2.9-20.74-.39-8.81-2.02-16.49-5.14-24.72-1.02-3.18-2.2-6.42-5.33-8.08-2.89-1.41-6.7-1.31-9.85-1.54.87 2.51 1.81 4.98 2.91 7.39-2.56-.65-4.44-.73-7.03-.08-5.01 1.18-9.49.24-14.57.28-10.32-.07-19.59 2.86-29.89 2.22-4.4-.38-8.75-1.52-13.12-2.13-8.62-1.42-17.31-.77-25.95-2.09-8.07-1.29-16.16-.69-24.26-1.55-6.92-.69-13.87-.72-20.79-1.36-5.05-.47-10.11-.23-15.16-.48-6.38-.31-11.22-4.3-17.78-4.22-5.07 0-9.73.36-14.5-1.77 2.91-2.5 5.3-5.04 9.4-5.19 9.23-.44 18.38.07 27.53 1.28 9.91 1.25 19.83.54 29.76 1.5-7.78.26-15.83-.76-23.49.62 7.29 1.16 14.5.53 21.83 1.11 14.32 1.24 28.48.98 42.83 3.03 9.18 1.37 18.01.97 27.32 1.17 9.19-.17 18.44-1.27 27.56-2.37 1.91-.24 3.81-.56 5.71-.89-11.26-3.69-21.33-1.64-33-2.21-9.66-.04-19.05-1.8-28.64-2.56-25.14-1.36-50.25-2.72-75.41-3.8-1.89-.18-4.77-.45-5.88-2.25-.15-1.1-.09-2.24-.09-3.34-6.19-1.16-12.79-.95-19.06-.45 7.67-1.64 16.51-.06 24.37-.22z" fill="#d64c4b"/><path d="m286.92 172.86c6.27-.5 12.87-.71 19.06.45 0 1.1-.06 2.24.09 3.34 1.11 1.8 3.99 2.07 5.88 2.25 25.16 1.08 50.27 2.44 75.41 3.8 9.59.76 18.98 2.52 28.64 2.56 11.67.57 21.74-1.48 33 2.21-1.9.33-3.8.65-5.71.89-6.18-.7-12.06-.94-18.26-.23-13.31.64-26.79.75-40.03-.94-12.56-1.12-25.18-1.68-37.76-2.39-9.93-.96-19.85-.25-29.76-1.5-9.15-1.21-18.3-1.72-27.53-1.28-4.1.15-6.49 2.69-9.4 5.19 2.42-3.32 5.31-6.06 8.47-8.65-5.54 1.24-11.37 3.44-16.98 3.52-8.06.36-14.12-3.64-22.27-1.38-6.24 1.12-9.68 5.84-16.08 3.94 6.41-3.94 13.62-6.12 21.09-6.75 9.49-.04 18.44.21 27.39-3.5 1.58-.54 3.15-1.13 4.75-1.53z" fill="#c62025"/><path d="m316.75 173.09c7.35.57 14.69.31 22.04.54 16.08 2.71 33.36.4 49.31 1.35l.87.1c1.34.49 2.67 1.03 3.99 1.58-12.4.89-24.61-.54-36.97-.69-16.02.21-32.07-.74-48.09-1.49 2.91-.73 5.84-1.31 8.85-1.39z" fill="#c62025"/><path d="m388.1 174.98c-15.95-.95-33.23 1.36-49.31-1.35 16.47-.36 32.91-.27 49.31 1.35z" fill="#d64c4b"/><path d="m203.12 174.25c1.7.21 1.48 2.46-.11 2.67-1.69-.22-1.47-2.46.11-2.67z" fill="#e5e4e3"/><path d="m303.8 174.57c-.45 1.01-.9 2.01-1.35 3.02-3.82-.87-7.65-1.69-11.47-2.53 4.26-.52 8.53-.56 12.82-.49z" fill="#f7d5a4"/><path d="m151.86 174.71c3.31.65 6.38 1.17 9.08 3.36 4.54 3.24 4.77 10.23 8.52 14.51 1.69 2.03 4.01 2.6 6.47 3.18.46.54.93 1.09 1.39 1.64-.13.86-.27 1.71-.41 2.57-5.31-2.6-10.13-6.1-15.48-8.59.24-.91.74-1.52.33-2.47-1.86-5.8-5.57-10.1-9.9-14.2z" fill="#d64c4b"/><path d="m208.33 175.28c1.17-1.16 2.97.13 2.12 1.58-1.17 1.17-2.97-.12-2.12-1.58z" fill="#e5e4e3"/><path d="m212.32 175.45c1.8-.9 2.84 1.84 1.52 2.93-1.79.91-2.84-1.83-1.52-2.93z" fill="#464647"/><path d="m289.02 178.56c-3.16 2.59-6.05 5.33-8.47 8.65-1.11 1.33-2.2 2.84-3.58 3.9-2.71-.08-5.2-2.02-7.94-2.3-6.15-.57-11.81.41-17.77 1.14-1.78.47-1.96-1.41-2.96-2.47-1.02-.72-2.03-1.35-3.31-1.48-4.37-.52-8.85-.28-13.25-.34.66-.33 1.31-.67 1.95-1.02 6.4 1.9 9.84-2.82 16.08-3.94 8.15-2.26 14.21 1.74 22.27 1.38 5.61-.08 11.44-2.28 16.98-3.52z" fill="#d64c4b"/><path d="m469.89 184c7.45.48 13.49 4.33 17.98 10.13 7.3 9.02 9.74 20.25 9.27 31.65-.17 1.15-.37 2.28-.58 3.42-2.64 1.74-5.23 3.04-8.23 4.07-.13-3.51 0-7 .31-10.49.94.87 1.93 1.68 2.93 2.47.62-7.93.32-18.8-5.94-24.66.13 1.97.32 3.94.5 5.91l-1 1.87c-3.76-8.92-9.04-16.96-15.24-24.37z" fill="#c62025"/><path d="m347.24 184.8c12.58.71 25.2 1.27 37.76 2.39 13.24 1.69 26.72 1.58 40.03.94 6.2-.71 12.08-.47 18.26.23-9.12 1.1-18.37 2.2-27.56 2.37-9.31-.2-18.14.2-27.32-1.17-14.35-2.05-28.51-1.79-42.83-3.03-7.33-.58-14.54.05-21.83-1.11 7.66-1.38 15.71-.36 23.49-.62z" fill="#f7d5a4"/><path d="m226.91 186.3c2.25.18 4.44 1.97 6.43 2.96-2.21-.39-4.72-.98-6.94-.54-2.33.62-4.55 1.83-6.84 2.62 2.07-2.12 4.05-5.05 7.35-5.04z" fill="#c62025"/><path d="m280.55 187.21c4.77 2.13 9.43 1.77 14.5 1.77 6.56-.08 11.4 3.91 17.78 4.22 5.05.25 10.11.01 15.16.48 6.92.64 13.87.67 20.79 1.36 8.1.86 16.19.26 24.26 1.55 8.64 1.32 17.33.67 25.95 2.09 4.37.61 8.72 1.75 13.12 2.13 10.3.64 19.57-2.29 29.89-2.22 5.08-.04 9.56.9 14.57-.28 2.59-.65 4.47-.57 7.03.08-1.1-2.41-2.04-4.88-2.91-7.39 3.15.23 6.96.13 9.85 1.54 3.13 1.66 4.31 4.9 5.33 8.08.06 2.86.27 5.66 1.12 8.42 1.62 5.4 2.04 10.99 4.02 16.3 1.48 7.7-2.11 13.33-2.9 20.74-.8 6.92-1.24 13.86-2.49 20.73-1.32 7.39-2.54 14.77-3.72 22.18-1.34 8.6-4.68 16.43-5.15 25.21-.15 3.93-1.51 6.8-3.83 9.94-.72-3.9-.76-7.34.19-11.21 1.3-5.32.9-10.66 1.81-16.03 2.16-12.33 3.17-24.87 4.77-37.3.94-7.18 1.53-14.32.96-21.57-2.35.5-5.64.57-7.5 2.19-1.79 2.56-1.38 6.77-1.48 9.77.32 8.76-.68 17.38-1.88 26.03-1.34 8.86-1.09 17.82-2.46 26.68-.45 2.82-.16 4.48 1 7.03-.57-.13-1.14-.25-1.7-.38.61 5.2-.86 9.83-1.4 14.96-.31 4.7-2.06 9.59-1.58 14.26.43 3.4 2.85 4.54 5.36 6.35 2.32-2.09 4.57-3.91 6.14-6.69 1.94-3.47 3.37-7.18 5.53-10.54 3.93-6.2 8.03-11.77 10.73-18.68 1.64-3.43 3.83-6.47 6.13-9.48-.45 7.35-2.68 14.17-5.02 21.08-1.22 3.55-1.96 7.71-3.89 10.91-.53 2.13-.93 4.45-1.85 6.44-1.37 1.8-3.52 3.09-5.39 4.33-4.74 3.21-10.07 4.36-15.63 5.25-4.64.7-9.26 1.53-13.92 2.09-11.14 1.33-21.58 3.07-32.89 2.25-5.93-.41-11.56-2.9-17.35-4.62-.14-2.79-.26-5.59-.4-8.38 2.69-3.95 6.3-8.85 5.85-13.85-.23-3.3-.07-7.4-1.61-10.38-2.52-1.55-5.65-2.23-8.05-3.94-1.02-1.01-1.69-2.44-2.31-3.72-.17-1.6-.33-3.21-.5-4.82.28-6.75 1.24-13.32.81-20.11-.04-3.49-.78-7.27-.15-10.71 2.16-4.64 7.29-8.05 9.2-12.94 1.04-3.56.66-7.75 1.9-11.3.84-2.31 2.05-4.52 3.14-6.72-.7-.31-1.4-.61-2.1-.92-.64-2.39-1.39-4.72-2.56-6.91 10.23 7.62 15.89 20.82 15.58 33.44.01 19.59-3.72 39.7-7.34 58.92-1.08 6.2-2.97 12.21-3.57 18.43 1.63-1.61 2.52-3.58 3-5.81 3.89-17.82 7.6-35.6 9.31-53.79 1.04-11.29 2.53-23.03-1.65-33.88-2.37-6.86-6.57-12.47-11.28-17.88-.32-1.55-.56-3.1-.82-4.66 1.78.03 3.56.07 5.34.11-1.74-2.36-3.48-4.72-5.23-7.08 3.56.25 7.11.47 10.67.67 1.1-5.99 2.83-11.04 6.09-16.19-3.28-.79-6.56-1.39-9.91-1.84-8.63-1.49-17.23-2.71-26.01-2.75-17.36-1.01-34.64-2.79-52.04-3.15-7.76-.07-16.73-2.37-23.85.9-.22 6.49-.8 12.78.17 19.26.26-6.58 3.48-12.19 3.71-18.7 1.63-1.24 4.08-1.19 6.02-1.1 6.29.49 11.7 3.19 16.81 6.72-2.24 1.2-5.03 2.16-7 3.75-1.43 1.76-2.47 5.34-1.25 7.37 3.11 1.51 6.73 2.03 10.04 3-4.44.31-8.81.15-13.19 1.15-5.41 1.3-10.59.61-16.06.76l-.14 1.85c-.02 2.09-.1 4.35.46 6.38 1.19 1.97 3.37 3.42 5.08 4.93.13 3.55.45 7.05 1.19 10.53 1.87-1.9 3.6-3.87 5.27-5.95-1.13-1.62-2.47-3.32-3.16-5.18-.69-2.54.17-5.58 1.06-8 2.79 1.04 5.64 1.86 8.53 2.55 1.01 1.45 2.03 2.89 3.02 4.35 9.26-.38 18.03-.34 26.74 3.37-9.08 1.17-18.48-.27-27.62-.37 1.74 1.4 3.49 2.77 5.27 4.11-.1 3.08-.44 6.07-1.02 9.1-5.19-.98-10.74-2.31-16.03-2.09-1.78-.1-2.39.92-3.68 1.89 7.63.41 15.06 1.81 22.63 2.66-.31 3.7.02 7.31.48 10.98.54-1.51 1.07-3.02 1.41-4.58.54-2.64 1.46-4.84 2.82-7.15 2.86.62 5.75 1.02 8.61 1.6 2.66.55 5.06 2.12 7.66 2.68 1.69.25 3.51.06 5.21-.02 1.1 8.37-1.29 15.9-1.75 24.17 1.34-2.24 2.82-4.32 4.47-6.34 1.2.44 2.41.78 3.64 1.03.97 6.96 2.27 13.86 3.32 20.8-3.17 1.54-6.12 3.35-9.02 5.35-.79.42-1.59.82-2.4 1.21-2.33-1.27-5.09-2.24-7.13-3.94-1.56-2.78-1.51-6.7-2.01-9.81-.8.47-1.6.94-2.4 1.42-.01-3.39-.02-6.78-.09-10.18-1.85-.84-3.65-1.78-5.42-2.78.82-.85 1.63-1.7 2.44-2.55-1.63-1.23-3.22-2.51-4.86-3.74 2.22-.47 4.47-.77 6.67-1.3-3-2.61-5.94-4.7-10.01-5.18-.71 2.38-1.33 4.79-1.9 7.21-1.35-.86-2.71-1.71-4.07-2.57-.92 1.18-1.84 2.37-2.76 3.55-2.55-.69-5.26-1.33-7.66-2.42-2.55-1.16-4.58-3.63-6.58-5.56-1.26 4.43-2.1 8.95-2.83 13.5 2.71-1.85 5.55-5.55 9.2-3.76 3.95 1.18 2.62 4.67 3.52 7.9.2 1.98 1.33 3.33 2.45 4.88.59.77 1.2 1.53 1.81 2.29-4.03.07-7.71.34-11.52-1.28-4.02-1.75-7.86-3.76-12.13-4.91 8.42 5.64 17.59 10.21 26.41 15.2l-1.61.8c-5.46-2.29-10.02-5.69-16.01-6.76-.71-.18-1.43-.37-2.15-.56-2.54-.76-5.12-1.38-7.74-1.84-.67 1.8-1.22 3.63-1.63 5.5-.11.57-.22 1.14-.31 1.71-.31 1.48-.66 2.95-1 4.43-7.54-.28-14.67-1.87-22.15-3.03 4.87-.14 9.87.82 14.69.29 2.51-1.21 4.85-4.07 5.71-6.69.42-2.68-1.85-3.98-3.4-5.77-.77 2.76-1.44 5.53-2 8.33-.88-.77-1.76-1.53-2.64-2.29-.03.86-.06 1.72-.08 2.59-2.93-1.1-5.28-1.77-8.36-.89-3.04-1.43-5.61-2.14-9-2.33-.45 3.61-1.25 5.71-3.37 8.63 5.06 1.49 10.17 1.77 15.38 2.26 4 .19 6.38 4.4 8.76 7.13.43-.07.85-.13 1.28-.19.83-1.33 1.6-2.74 2.61-3.94 1.17-.75 2.79-.88 4.14-1.06.48 2.44 1.13 4.87 2.03 7.19.36-1.26.73-2.51 1.12-3.76 2.09 2.73 4.57 5.63 5.55 8.97 1 3.41.44 6.7.81 10.03.1 1.47 1.67 2.59 2.59 3.62l1.01-1.1c.64-1.17 2.6-2.19 1.66-3.61-.73-.74-1.5-1.44-2.3-2.11-.44-3.66-.57-7.3.05-10.95.28-1 .56-2.01.84-3.01 1.53.77 5.23 1.11 4.85 3.49-.11 5.09-1.17 9.45 1.35 14.24.94-1.32 2.58-2.59 2.42-4.33-.18-4.13-.91-8.07-.2-12.23 2.84 3.18 4.64 6.77 6.22 10.69 1.06 2.81 3.14 4.57 5.29 6.54-1.93 2.62-3.83 5.27-5.67 7.95-7.68-1.73-15.28-3.48-23.18-3.77-3.36-.64-6.55-1.78-9.85-2.61-3.85-1.01-8.34.03-12.24-.64-2.87-.71-5.45-2.73-8.23-3.57-3.71-.43-8.16.93-11.92-.35-3.09-1.07-5.92-2.74-6.66-6.18-1.64-6.55 0-13.98 1.3-20.47 3.22.11 6.43.22 9.64.33.06-1.04.11-2.08.16-3.13-6.33-.28-12.76-.81-18.98-2.04-1.61-.22-2.47-2.13-2.28-3.6.48-3.73 1.95-7.04 1.72-10.9.11-1.83-.39-4.26.61-5.88 4.44-.82 9.37.19 13.77 1.01-.35 2.84-1.46 6.97.31 9.48 1.69.81 3.63 1.12 5.49 1.12 1.87-2.6 1.44-6.89 1.95-10.02.28 1.6.56 3.21.82 4.82 2.79.55 5.57 1.02 8.39 1.4-2.14-3.47-4.93-6.49-6.96-10-1.78-3.24-1.34-6.62-1.18-10.16 2.01 5.49 1.86 10.7 5.97 15.26.83-.88 1.66-1.76 2.49-2.65-1.39-1.84-3.05-3.76-3.92-5.92-.65-2.44-.17-5.26-.02-7.75-7.83-3.03-15.2-6.76-23.33-8.99-.69-7.55-.12-15.09-.64-22.64-3.42-.97-5.53-2.53-7.95-5.09-.33-3.53-1.24-7.14-2.03-10.6-3.23.15-6.46.33-9.69.59 2.86-.77 5.68-1.65 8.43-2.73-5.86-2.83-12.23-3.65-17.84.26l-.86.63c-.23-.97-.48-1.94-.75-2.9 1.25-.12 2.51-.23 3.77-.35-1.7-2.1-2.87-4.07-3.79-6.62 4.4 1.5 8.61 2.49 13.22 3.09.85-1.22 1.71-2.44 2.56-3.66 1.83.37 3.65.75 5.48 1.11-.77-3.65-1.89-6.95-3.45-10.33 4.55-.05 9.23-1.2 13.69-2.05 1 1.06 1.18 2.94 2.96 2.47 5.96-.73 11.62-1.71 17.77-1.14 2.74.28 5.23 2.22 7.94 2.3 1.38-1.06 2.47-2.57 3.58-3.9z" fill="#c62025"/><path d="m141.97 187.79c4.48-.22 8.68.51 13.08 1.19 2.15.73 4.27 1.57 6.38 2.4 5.35 2.49 10.17 5.99 15.48 8.59.14-.86.28-1.71.41-2.57-.46-.55-.93-1.1-1.39-1.64 3.05-.4 6.09-1.07 9.14-1.52.97.64 1.93 1.27 2.92 1.88-3.1.57-6.12 1.42-9.11 2.4 1.43.68 2.71 1.74 4.37 1.52 3.23-.34 6.42-.81 9.67-.81 1.21.81 2.41 1.63 3.65 2.39-2.61 1.14-5.09 2.39-7.5 3.9 3.4-.18 6.8-.36 10.2-.58-3.2 1.77-6.07 3.93-8.97 6.14 3.71 6.67 9.32 11.92 13.35 18.43.52-3.87.13-7.6-.53-11.42-.75-4.48-.49-8.9-.24-13.4.74-.04 1.48-.08 2.22-.1 2.28.08 4.57.13 6.86.2.22.98.46 1.95.7 2.93-2.33.53-4.65 1.06-6.98 1.57-.19 3.74 0 7.42.39 11.14.71-.81 1.43-1.62 2.16-2.42 1.65 2.45 2.71 4.23 5.66 5.35-1.06 1.46-2.2 3.12-2.65 4.88.05 1.51.48 3.07.83 4.54-1.45-.21-2.9-.42-4.36-.62-.62 3.54-.11 5.71 1.3 8.96 1.38.12 2.76.23 4.14.33-.92.18-1.84.36-2.75.56.44.79.89 1.58 1.33 2.37.93 1.74 1.8 3.51 2.51 5.35.45 1.49.83 3.01 1.18 4.52.17.77.33 1.54.49 2.31 3.12 1.08 6.3 1.42 9.58 1.44.45.79.87 1.59 1.3 2.38-2.73 1.76-6.61.81-9.71.78 1.01.46 2.02.92 3.03 1.38-.66 8 .21 16.58 1.69 24.44.85-1.06 1.65-2.13 2.41-3.24-.04-3.46-1.61-6.83-1.89-10.31 1.51-.9 3.71.07 5.33.3.26 2.41.45 4.82.73 7.23.36.95.61 2.49 1.54 3.04 2.61 1.56 5.72 2.41 8.57 3.45 1.15 2.48 2.03 6.08 4.18 7.83 2.1.47 4.36.41 6.51.51-.94 4.05-1.44 7.82-1.65 11.98-.12 2.88-3.16 4.71-5.81 3.54-4.33-1.25-5.64-6.32-3.53-9.98 1.39-1.4 3.66-2 5.45-2.78-2.21-.66-4.36-1.46-6.55-2.17-1.32-.46-2.64-.9-3.99-1.26l-.64 1.78c-.18 3.83.5 7.46 1.02 11.23.23-2.82.53-5.64.99-8.44 2.22 4.9 1.07 9.27 1.63 14.56-1.03.6-2.05 1.19-3.07 1.78 1.44 1.08 2.86 2.16 4.29 3.25l.72.79c1.03-1.84 2.07-4 3.62-5.45 2.17-1.35 5.27-1.49 6.83.86 1.64 2.52 2.05 6 2.69 8.9-9.18-.32-18.29-1.44-27.46-1.73-1.13 4.11-1.37 8.29-2.06 12.47-1.1 2.2-4.17 3.02-6.26 3.96.55-3.2 1.15-6.31 2.61-9.24.75-1.71 1.86-3.43 2.22-5.27.05-3.31-1.53-6.64-1.46-9.94.46-2.66 1.74-4.77 1.29-7.59-.97-7.11-.59-14.25-1.43-21.37-.88-8.77-.2-19.2-4.08-27.25-.73-2.01-2.81-1.95-4.6-2.25-6.21-.47-12.6.28-18.78.96-7.66.94-15.39 1.55-22.88 3.04-1.7-1.69-3.41-3.37-5.16-5.02.52 1.46 1.05 2.91 1.57 4.37.91.28 1.82.55 2.73.82-1.65.39-3.36.93-5.05 1.1-1.41-.77-2.04-2.12-2.7-3.5-1.13-7.92-5.18-14.09-8.62-21.13-3.29-6.46-7.46-12.17-11.48-18.19 3.26 1.42 5.41 3.44 7.54 6.24 4.6 5.34 7.67 11.41 12.78 16.26-.42-2.02-.86-4.04-1.33-6.05 4.25 2.38 8.4 4.35 13.43 4.07 4.65.12 8.65-1.47 12.77-3.4 3.1-1.5 6.43-.24 9.43-1.28 2.47-1.33 4.49-3.82 6.33-5.92-3.91-4.29-6.86-9.07-11.31-12.43.3 4.21 2.91 6.19 5.82 8.79-5.91-1.42-11.89-.03-17.75-1.09-2.66-.57-2.8-2.1-3.44-4.39 4.86-1.94 10.57-2.01 13.81-6.18-4.11-4.75-9.02-9.31-14.57-12.3-3.01-1.64-6.21-1.05-9.46-.68-6.42 1.03-12.49 1.58-18.52 4.03-2.51.79-4.82 2.44-7.41 1.09-8.18-3.96-15.53-8.48-24.59-10.5-4.5-.89-9.01-1.63-13.46-2.73 8.88-.26 17.53-1.97 26.36-2.68 5.33-.44 10.62-1.42 15.96-1.68z" fill="#c62025"/><path d="m214.09 188.58c.46 1.23.88 2.48 1.31 3.73 1.39-.29 2.78-.58 4.16-.97 2.29-.79 4.51-2 6.84-2.62 2.22-.44 4.73.15 6.94.54l1.27.27c1.56 3.38 2.68 6.68 3.45 10.33-1.83-.36-3.65-.74-5.48-1.11-.85 1.22-1.71 2.44-2.56 3.66-4.61-.6-8.82-1.59-13.22-3.09.92 2.55 2.09 4.52 3.79 6.62-1.26.12-2.52.23-3.77.35-1.72-5.72-3.06-11.51-4.24-17.36z" fill="#d64c4b"/><path d="m210.25 189.62c.77-.24 1.54-.47 2.33-.69 1.18 5.85 2.52 11.64 4.24 17.36.27.96.52 1.93.75 2.9 1.45 7.39 3.46 14.57 5.25 21.89 1.54 6.46 3.65 12.32 4.09 19.01-1.7-3.62-2.76-7.42-3.7-11.29-2.75-11.09-6.2-21.98-9.02-33.06-1.41-5.45-3.29-10.65-3.94-16.12z" fill="#fefefe"/><path d="m228.64 191.56c3.11 1.08 1.51 5.98 1.39 8.39-1.38-1.54-4.76-3.53-4.15-5.87.66-1.33.78-3.77 2.76-2.52z" fill="#464647"/><path d="m285.62 191.61c6.46-.16 13.14.54 19.53 1.59-.82.8-1.61 1.63-2.34 2.5-.88-.58-1.75-1.27-2.72-1.7-1.41.38-2.67 1.27-4.08 1.59-1.73-.39-3.24-1.48-5.03-1.77-2.47.06-4.95.62-7.4.95.64-1.06 1.28-2.18 2.04-3.16z" fill="#f7d5a4"/><path d="m99.65 192.15c4.45 1.1 8.96 1.84 13.46 2.73 9.06 2.02 16.41 6.54 24.59 10.5 2.59 1.35 4.9-.3 7.41-1.09 6.03-2.45 12.1-3 18.52-4.03 3.25-.37 6.45-.96 9.46.68 5.55 2.99 10.46 7.55 14.57 12.3-3.24 4.17-8.95 4.24-13.81 6.18.64 2.29.78 3.82 3.44 4.39 5.86 1.06 11.84-.33 17.75 1.09-2.91-2.6-5.52-4.58-5.82-8.79 4.45 3.36 7.4 8.14 11.31 12.43-1.84 2.1-3.86 4.59-6.33 5.92-3 1.04-6.33-.22-9.43 1.28-4.12 1.93-8.12 3.52-12.77 3.4-5.03.28-9.18-1.69-13.43-4.07.47 2.01.91 4.03 1.33 6.05-5.11-4.85-8.18-10.92-12.78-16.26-2.13-2.8-4.28-4.82-7.54-6.24-4.68-3.72-8.57-8.24-13.46-11.76-7.34-5.6-15.88-9.29-24.95-10.98-9.75-1.96-20.49 1.16-28.74 6.42-1.1 3.81-4.33 5.04-7.3 7.24 6.04-1.4 12.19-1.94 18.28-3.05.58 1.74.7 3.52.78 5.34l1.32.87c-3.77.62-7.48 1.04-10.92 2.83-3.1 1.63-5.94 3.96-8.75 6.03 2.22-2.37 4.48-4.7 6.73-7.04-3.2-.45-7.7-1.95-10.75-.53-4.88 3.39-8.33 9.44-11.4 14.42-3.01 5.13-6.97 9.73-8.63 15.46-.86 2.77-.78 5.54-.62 8.4-1.07.1-2.13.21-3.19.33 4.55-18.32 14.15-37.53 29.12-49.5 9.19-7.32 20.83-11.05 32.55-10.95z" fill="#d64c4b"/><path d="m249.93 193.37c7.36-.26 14.72.2 21.9 1.9-.29 3.85-.75 7.68-1.3 11.51-5.66.8-11.1.11-16.69-.85-5.71-1.03-10.73-.05-15.74-3.45 2.83-2.31 5.23-4.99 7.72-7.65 1.1-1.32 2.53-1.33 4.11-1.46z" fill="#f7d5a4"/><path d="m209.61 193.5c.9 2.93 1.57 5.88 2.25 8.87-7.99.45-13.95-2.05-19.85-7.3 5.78.38 11.89-.68 17.6-1.57z" fill="#c62025"/><path d="m285.44 197.57c1.14 3.45.35 7.69.1 11.25-3.15-.1-6.21-.38-9.32-.87-.22-2.72-.44-5.43-.71-8.14-.81 3.54-1.26 7.1-1.47 10.73 3.92.14 7.83.34 11.75.55-.02 3.29-.11 6.58-.35 9.86-.37-.76-.75-1.52-1.12-2.27-2.75-.34-5.5-.7-8.26-.98-6.99-.62-13.92-.41-20.92-.21-.14-1.35-.36-2.78-.23-4.13.54-1.63 2.06-3.1 3.6-3.81 4.29-.74 8.92 1.14 13.15.38 2.64-5.38 1.37-11.27 5.68-15.34 2.98.25 5.79.98 8.1 2.98z" fill="#f7d5a4"/><path d="m101.17 195.88c9.07 1.69 17.61 5.38 24.95 10.98 4.89 3.52 8.78 8.04 13.46 11.76 4.02 6.02 8.19 11.73 11.48 18.19 3.44 7.04 7.49 13.21 8.62 21.13-6.71-15.5-13.37-29.98-25.33-42.29-8.55-8.15-18.08-14.71-29.83-17.17-10.2-2.07-22.08-1.55-31.01 4.33 3.27 1.32 6.61 2.43 9.9 3.68-6.09 1.11-12.24 1.65-18.28 3.05 2.97-2.2 6.2-3.43 7.3-7.24 8.25-5.26 18.99-8.38 28.74-6.42z" fill="#f7d5a4"/><path d="m187.99 196.12c1.66 1.01 3.31 2.04 4.93 3.11-3.25 0-6.44.47-9.67.81-1.66.22-2.94-.84-4.37-1.52 2.99-.98 6.01-1.83 9.11-2.4z" fill="#e5e4e3"/><path d="m326.96 197.1c17.4.36 34.68 2.14 52.04 3.15 8.78.04 17.38 1.26 26.01 2.75.77.37 1.53.76 2.28 1.15-.58 3.13-.89 7.49-3.2 9.83-4.94 2.11-10.96 2.16-16.27 2.79 1.93 1.97 4.11 3.95 5.59 6.3-.24 1.59-2.15 2.74-3.18 3.88-1.3-.55-2.6-1.07-3.94-1.52-5.72-1.98-11.33-2.08-17.3-2.32-2.03-.01-4.28-.16-6.24.43-.63.81-1.22 1.65-1.78 2.52l-.53.77c-10.82-.92-21.67-1.34-32.48-2.34-.28-1.01-.56-2.02-.88-3.03l-.38-.07c-.46-.07-.93-.13-1.39-.18-3.72-.26-7.5-.66-11.22-.42-1.3.11-2.46 1.28-3.56 1.93-2.77-.27-5.54-.45-8.31-.66l.14-1.85c5.47-.15 10.65.54 16.06-.76 4.38-1 8.75-.84 13.19-1.15-3.31-.97-6.93-1.49-10.04-3-1.22-2.03-.18-5.61 1.25-7.37 1.97-1.59 4.76-2.55 7-3.75-5.11-3.53-10.52-6.23-16.81-6.72-1.94-.09-4.39-.14-6.02 1.1-.23 6.51-3.45 12.12-3.71 18.7-.97-6.48-.39-12.77-.17-19.26 7.12-3.27 16.09-.97 23.85-.9z" fill="#f7d5a4"/><path d="m467.88 198.72c2.27 1.2 4.3 2.6 5.46 4.98 2.23 4.52 3.02 10.01 3.88 14.95-2.05-.78-5.7-.87-6.2-3.52-1.44-4.04-2.96-8.14-3.89-12.33-.35-1.5.21-2.72.75-4.08z" fill="#d64c4b"/><path d="m475.87 200.62c3.12 8.23 4.75 15.91 5.14 24.72-1.98-5.31-2.4-10.9-4.02-16.3-.85-2.76-1.06-5.56-1.12-8.42z" fill="#464647"/><path d="m485.63 200.59c6.26 5.86 6.56 16.73 5.94 24.66-1-.79-1.99-1.6-2.93-2.47.59-5.79-.5-10.89-2.51-16.28-.18-1.97-.37-3.94-.5-5.91z" fill="#f7d5a4"/><path d="m196.57 201.62c2.76 1.2 5.64 2.13 8.53 2.97-.74.02-1.48.06-2.22.1-1.21.07-2.41.15-3.61.25-3.4.22-6.8.4-10.2.58 2.41-1.51 4.89-2.76 7.5-3.9z" fill="#e5e4e3"/><path d="m287.56 201.7c2.2 6.71 1.32 14.59-.11 21.4-.62-7.06-.85-14.36.11-21.4z" fill="#d64c4b"/><path d="m188.16 203.4c-2 .77-4 1.23-6.13 1.5 2.02-.67 4.04-1.15 6.13-1.5z" fill="#aba9a6"/><path d="m405.01 203c3.35.45 6.63 1.05 9.91 1.84-3.26 5.15-4.99 10.2-6.09 16.19-3.56-.2-7.11-.42-10.67-.67 1.75 2.36 3.49 4.72 5.23 7.08-1.78-.04-3.56-.08-5.34-.11.26 1.56.5 3.11.82 4.66-2.66-2.02-5.57-3.7-8.64-5.04 1.03-1.14 2.94-2.29 3.18-3.88-1.48-2.35-3.66-4.33-5.59-6.3 5.31-.63 11.33-.68 16.27-2.79 2.31-2.34 2.62-6.7 3.2-9.83-.75-.39-1.51-.78-2.28-1.15z" fill="#d64c4b"/><path d="m466.38 206.54c2.14 5.61 4.6 13.52 1.84 19.25-2.16-2.35-4.23-4.46-5.47-7.48-1.72-4.11-1.63-9.27-1.89-13.67 2.31.04 4.49-.82 5.52 1.9z" fill="#f7d5a4"/><path d="m199.27 204.94c1.2-.1 2.4-.18 3.61-.25-.25 4.5-.51 8.92.24 13.4.66 3.82 1.05 7.55.53 11.42-4.03-6.51-9.64-11.76-13.35-18.43 2.9-2.21 5.77-4.37 8.97-6.14z" fill="#464647"/><path d="m460.86 204.64c.26 4.4.17 9.56 1.89 13.67 1.24 3.02 3.31 5.13 5.47 7.48-2.27-.21-6.83 1.21-8.14-1.05-.69-6.45-.97-12.62-3.27-18.8 1.35-.44 2.69-.89 4.05-1.3z" fill="#d64c4b"/><path d="m236.27 208.3c-2.75 1.08-5.57 1.96-8.43 2.73 3.23-.26 6.46-.44 9.69-.59.79 3.46 1.7 7.07 2.03 10.6-.18 3.02-.79 6.1-1.35 9.07-4.25.16-8.02.82-12.08 2.11-.32-.29-.64-.58-.96-.87 2.07-1.14 4.17-2.25 6.18-3.5l-.18-1.12c-.58-2.41-1.25-5.29-2.86-7.23-1.63-.87-4.25-.01-6.05.12-.94-3.83-2.05-7.53-3.83-11.06 5.61-3.91 11.98-3.09 17.84-.26z" fill="#d64c4b"/><path d="m212.66 207.72c.97 3.71 1.48 7.29 1.58 11.13-1.18.38-2.37.77-3.55 1.17 1.72.34 3.45.64 5.18.95-.68.78-1.34 1.58-1.98 2.39-2.95-1.12-4.01-2.9-5.66-5.35-.73.8-1.45 1.61-2.16 2.42-.39-3.72-.58-7.4-.39-11.14 2.33-.51 4.65-1.04 6.98-1.57z" fill="#d64c4b"/><path d="m433.76 207.78c6.19-.35 12.21.26 18.3 1.34.27 5.43-.14 10.26-1.33 15.55-5.15-.21-10.04-1.07-15.01-2.4-1.16-4.85-1.81-9.5-1.96-14.49z" fill="#d64c4b"/><path d="m281.13 214.51c-4.81.5-9.6.66-14.41-.03 4.82-1.07 9.57-.64 14.41.03z" fill="#464647"/><path d="m276.06 217.7c2.76.28 5.51.64 8.26.98.37.75.75 1.51 1.12 2.27-3.42-.06-6.83-.12-10.25-.23.29-1.01.58-2.01.87-3.02z" fill="#fefefe"/><path d="m228.31 219.5c1.61 1.94 2.28 4.82 2.86 7.23-2.05.04-4.1.06-6.15.1-1.13-2.33-2.11-4.71-2.76-7.21 1.8-.13 4.42-.99 6.05-.12z" fill="#c62025"/><path d="m314.09 220.79c3.72-.24 7.5.16 11.22.42-.18.95-.35 1.9-.52 2.86-4-.24-7.96-.6-11.93-1.07l-2.33-.28c1.1-.65 2.26-1.82 3.56-1.93z" fill="#e5e4e3"/><path d="m326.7 221.39.38.07c.32 1.01.6 2.02.88 3.03 10.81 1 21.66 1.42 32.48 2.34 7.51.67 15.14 1.66 22.7 1.52-5.69-3.47-11.39-3.09-17.79-3.71-1.49.36-2.95.88-4.38 1.42.56-.87 1.15-1.71 1.78-2.52 1.96-.59 4.21-.44 6.24-.43 5.97.24 11.58.34 17.3 2.32-.31.75-.62 1.5-.91 2.25 3.17 1.44 6.64 2.79 9.44 4.88 1.17 2.19 1.92 4.52 2.56 6.91.7.31 1.4.61 2.1.92-1.09 2.2-2.3 4.41-3.14 6.72-1.24 3.55-.86 7.74-1.9 11.3-1.91 4.89-7.04 8.3-9.2 12.94-.63 3.44.11 7.22.15 10.71.43 6.79-.53 13.36-.81 20.11-.26-1.28-.53-2.56-.81-3.84-2.31-1.13-4.63-2.23-6.9-3.42.15-2.44.3-4.88.41-7.32 2.25-.03 4.51-.13 6.76-.25-2.46-1.11-4.96-2.15-7.48-3.13.38-2.82.68-5.66.93-8.49 1.63-.53 3.21-1.19 4.77-1.92-4.15-1.87-8.17-3.74-11.63-6.76.22-1.5.43-3 .64-4.51 2.62.05 5.28-.01 7.9-.19-3-1.06-6.1-1.54-9.2-2.19-2.32-.4-4.06-2.16-5.89-3.51.4-4.55.1-10.17-2.73-13.95-4.73-3.85-9.95-3.56-15.66-2.87l-1.64-.16c-3-.32-5.99-.65-9-.79-2.33-.09-4.66-.09-6.99-.09-1.78-1.34-3.53-2.71-5.27-4.11 9.14.1 18.54 1.54 27.62.37-8.71-3.71-17.48-3.75-26.74-3.37-.99-1.46-2.01-2.9-3.02-4.35-2.89-.69-5.74-1.51-8.53-2.55l.74-1.77c3.97.47 7.93.83 11.93 1.07.17-.96.34-1.91.52-2.86.46.05.93.11 1.39.18z" fill="#d64c4b"/><path d="m302.22 222.06c2.77.21 5.54.39 8.31.66l2.33.28-.74 1.77c-.89 2.42-1.75 5.46-1.06 8 .69 1.86 2.03 3.56 3.16 5.18-1.67 2.08-3.4 4.05-5.27 5.95-.74-3.48-1.06-6.98-1.19-10.53-1.71-1.51-3.89-2.96-5.08-4.93-.56-2.03-.48-4.29-.46-6.38z" fill="#464647"/><path d="m333.33 222.17c1.51-1.04 2.57 1.33.76 1.72-.99-.26-1.24-.83-.76-1.72z" fill="#464647"/><path d="m285.5 223.48c1.72 1.46 3.61 3.04 4.89 4.91-.39 1.45-1.61 2.63-2.2 4.02 3.92.8 7.74 1.07 11.73 1.02-.9.86-1.85 2.49-3.1 2.72-4.22-.88-7.24-2.98-11.68-1.33-1.02-.72-2.03-1.45-3.05-2.16-1.06-.73-2.1-1.48-3.15-2.22 2.61-.69 5.23-1.36 7.85-2.01-1.22-1.07-2.43-2.15-3.63-3.23.77-.58 1.55-1.17 2.34-1.72z" fill="#d64c4b"/><path d="m345.79 223.21c.79-.88 2.55-.56 2.96.56.04 1.8-3.65 1.09-2.96-.56z" fill="#464647"/><path d="m359.52 222.72c.14 1.06.28 2.12.42 3.18-1.04-.1-2.07-.21-3.1-.31.63-1.74.96-2.15 2.68-2.87z" fill="#464647"/><path d="m365.35 224.64c6.4.62 12.1.24 17.79 3.71-7.56.14-15.19-.85-22.7-1.52l.53-.77c1.43-.54 2.89-1.06 4.38-1.42z" fill="#e5e4e3"/><path d="m386.29 225.43c1.34.45 2.64.97 3.94 1.52 3.07 1.34 5.98 3.02 8.64 5.04 4.71 5.41 8.91 11.02 11.28 17.88 4.18 10.85 2.69 22.59 1.65 33.88-1.71 18.19-5.42 35.97-9.31 53.79-.48 2.23-1.37 4.2-3 5.81.6-6.22 2.49-12.23 3.57-18.43 3.62-19.22 7.35-39.33 7.34-58.92.31-12.62-5.35-25.82-15.58-33.44-2.8-2.09-6.27-3.44-9.44-4.88.29-.75.6-1.5.91-2.25z" fill="#fefefe"/><path d="m497.14 225.78c.52 18.66-3.45 37.82-6.2 56.19-.89 5.91-2.26 11.7-3.4 17.56-2.3 3.01-4.49 6.05-6.13 9.48.68-2.57 1.3-5.16 2.11-7.69 2.17-6.53 2.41-13.17 4.09-19.9 3.03-11.99 3.66-24.88 5.83-37.12 1-5.04 2.21-10.04 3.12-15.1.21-1.14.41-2.27.58-3.42z" fill="#aba9a6"/><path d="m362.69 230.95c4.07.87 7.49 2.95 11.55 3.57 3.06.49 6.12.91 9.15 1.59-1.65.95-3.51 2.47-5.47 2.52-4.76.23-9.65-.76-14.38-1.29-.32-2.11-.7-4.27-.85-6.39z" fill="#e5e4e3"/><path d="m253.15 232.42c1.41.56 2.76 1.2 4.14 1.83.08 1.51.16 3.01.25 4.52-1.29-.14-2.57-.28-3.85-.42-.21-1.97-.44-3.95-.54-5.93z" fill="#464647"/><path d="m282.09 232.66c1.02.71 2.03 1.44 3.05 2.16-1.33.35-2.64.73-3.97 1.1.3-1.09.6-2.17.92-3.26z" fill="#f7d5a4"/><path d="m260.71 234.76c4.84-.9 10.21-.26 15.04.47.34 1.97.68 3.93 1.02 5.9-2.11.35-4.21.7-6.32 1.02-.15 4.8.39 9.22 1.47 13.88-1.16-.49-2.33-.98-3.5-1.46-.49-6.27-.39-12.5-1.36-18.73-1.53 1.26-3.04 2.53-4.54 3.81-1.09.07-2.18.14-3.28.21.43-1.7.81-3.48 1.47-5.1z" fill="#464647"/><path d="m234.7 234.9c-.08 1.74-.21 3.47-.33 5.2-2.03.59-4.07 1.15-6.09 1.76-.4-1.87-.94-3.69-1.21-5.58 2.49-.75 5.05-1.12 7.63-1.38z" fill="#f7d5a4"/><path d="m281.35 239.65c1.03.08 2.06.26 3.08.43-.6 1.38-1.23 2.74-1.8 4.13-1.18-.23-2.36-.46-3.55-.7.7-1.3 1.38-2.68 2.27-3.86z" fill="#fefefe"/><path d="m328.06 238.78c2.33 0 4.66 0 6.99.09 1.21 1.39 2.42 2.8 3.62 4.21-1.04.62-2.05 1.3-3.06 1.97 3.77 1.77 7.13 2.35 11.3 2.34-.53-1.42-1.06-2.83-1.59-4.24-.43-1.16-.85-2.33-1.27-3.49l1.64.16c2.59 2.93 5.14 5.84 8.13 8.37 1.99 1.86 4.65 3.96 5.64 6.55-.19 3.18-2.02 6.25-2.17 9.44.04 1.48.41 3 .75 4.45-.83.63-1.65 1.28-2.47 1.93 1.07.46 2.17.81 3.3 1.12-1.65 2.02-3.13 4.1-4.47 6.34.46-8.27 2.85-15.8 1.75-24.17-1.7.08-3.52.27-5.21.02-2.6-.56-5-2.13-7.66-2.68-2.86-.58-5.75-.98-8.61-1.6-1.36 2.31-2.28 4.51-2.82 7.15-.16-3.01-.62-6.01-1.05-8.99-.29.86-.57 1.72-.84 2.59-7.57-.85-15-2.25-22.63-2.66 1.29-.97 1.9-1.99 3.68-1.89 5.29-.22 10.84 1.11 16.03 2.09.58-3.03.92-6.02 1.02-9.1z" fill="#464647"/><path d="m335.05 238.87c3.01.14 6 .47 9 .79.42 1.16.84 2.33 1.27 3.49-2.2-.06-4.44-.16-6.65-.07-1.2-1.41-2.41-2.82-3.62-4.21z" fill="#c62025"/><path d="m361.35 242.69c2.83 3.78 3.13 9.4 2.73 13.95-1.19-.9-2.4-1.76-3.62-2.61.87 2.81 1.77 5.47 3.83 7.67 2.42 2.69 4.7 5.29 5.96 8.76-4.24.89-7.8-1.91-12.21-1.83-.34-1.45-.71-2.97-.75-4.45.15-3.19 1.98-6.26 2.17-9.44-.99-2.59-3.65-4.69-5.64-6.55-2.99-2.53-5.54-5.44-8.13-8.37 5.71-.69 10.93-.98 15.66 2.87z" fill="#c62025"/><path d="m220.53 240.37c.5.77 1 1.53 1.48 2.31-3.41.68-6.84 1.21-10.28 1.7-.44-.79-.89-1.58-1.33-2.37.91-.2 1.83-.38 2.75-.56 2.47-.39 4.88-.84 7.38-1.08z" fill="#e5e4e3"/><path d="m234.37 240.1c.67.89 1.31 1.79 1.94 2.7-.9 1.89-2.04 5.8-4.83 4.64-2.43-.45-2.56-3.62-3.2-5.58 2.02-.61 4.06-1.17 6.09-1.76z" fill="#c62025"/><path d="m258.65 242.75c1.66 2.08 2.87 4.64 4.05 7.01-4.09.26-6.43-1.31-9.5-3.71 1.73-1.23 3.54-2.37 5.45-3.3z" fill="#c62025"/><path d="m292.89 242.23c.84-.89 3.41-.94 4.28-.07.49 1.46-4.79 1.56-4.28.07z" fill="#d64c4b"/><path d="m338.67 243.08c2.21-.09 4.45.01 6.65.07.53 1.41 1.06 2.82 1.59 4.24-4.17.01-7.53-.57-11.3-2.34 1.01-.67 2.02-1.35 3.06-1.97z" fill="#d64c4b"/><path d="m291.61 244.17c2.86-.37 5.28-.27 8.01.73-3.43 1.06-4.8.91-8.01-.73z" fill="#d64c4b"/><path d="m330.8 247.75c.43 2.98.89 5.98 1.05 8.99-.34 1.56-.87 3.07-1.41 4.58-.46-3.67-.79-7.28-.48-10.98.27-.87.55-1.73.84-2.59z" fill="#d64c4b"/><path d="m223.65 249.41c.27 1.35.54 2.7.82 4.04-3.01.31-6.03.59-9.05.8-.35-1.51-.73-3.03-1.18-4.52 3.13-.18 6.27-.27 9.41-.32z" fill="#d64c4b"/><path d="m264.84 256.76c-.81 2.79-1.63 5.58-2.47 8.36-4.05.5-7.27 3.19-11.29 2.97-9.54-.26-19.01.4-28.54.64-.32-1.86-.64-3.71-1.03-5.56 7.54.44 15.25.64 22.77-.1-4.92-2.44-9.65-1.57-15.05-1.98-.01-.92-.02-1.84-.03-2.76 4.3-1.21 7.47 2.14 11.72 1.87 2.28-.22 4.57-.95 6.68-1.81l.13-1.39.04-.76c.04-1.36.05-2.71.07-4.07 5.98.7 11.46 2.29 17 4.59z" fill="#c62025"/><path d="m280.13 253.51c.86.66 1.69 1.35 2.49 2.08.73 1.97-.02 4.03-.56 5.94l-2.05.58c.02-2.87 0-5.74.12-8.6z" fill="#d64c4b"/><path d="m163.13 255.15c1.75 1.65 3.46 3.33 5.16 5.02l-.86.17c-.91-.27-1.82-.54-2.73-.82-.52-1.46-1.05-2.91-1.57-4.37z" fill="#f7d5a4"/><path d="m232.02 255.27c5.25.43 10.48.91 15.75.97l-.04.76c-5.33-.01-10.53-.46-15.71-1.73z" fill="#e5e4e3"/><path d="m215.91 256.56c3.19 0 6.96-.81 9.58 1.44-3.28-.02-6.46-.36-9.58-1.44z" fill="#aba9a6"/><path d="m229.2 258.33c.01.92.02 1.84.03 2.76 5.4.41 10.13-.46 15.05 1.98-7.52.74-15.23.54-22.77.1l-1.4-.63c-1.01-.46-2.02-.92-3.03-1.38 3.1.03 6.98.98 9.71-.78.8-.69 1.6-1.37 2.41-2.05z" fill="#f7d5a4"/><path d="m99.82 262.16c8.26 1.45 14.99 6.61 19.64 13.45-.66-.14-1.32-.28-1.98-.42-2.59-2.83-5.13-5.73-8.62-7.47-4.73-1.92-10.39-4.98-15.56-3.56-6.86 1.61-12.85 6.98-16.17 13.08-6.98 12.69-8.93 28.22-6.98 42.43 1.91 9.14 3.4 18.74 8.4 26.64 5.19 8.25 10.84 16.5 20.54 19.73 4.94 1.69 8.98 1.29 13.69-.88-4.86-1.82-9.41-2.71-12.75-7.05 4.78 1.12 9.24 3.37 14.05 4.28 2.37.46 4.3-.58 6.41-1.48 1.12-1.76 1.73-3.41 2.13-5.44 1.27-.14 2.54-.35 3.8-.55-3.51 6.11-8.15 11.28-14.98 13.6-7.56 2.67-16.01-.03-22.07-4.88-9.24-7.39-14.58-17.91-17.97-29.04-5.05-16.3-5.18-34.55.53-50.7 2.46-6.78 6.32-13.43 12.35-17.63 4.52-3.24 9.96-4.99 15.54-4.11z" fill="#e5e4e3"/><path d="m280.01 262.11 2.05-.58c-.63 2.03-.62 3.6-.21 5.66-1.2-.52-2.39-1.03-3.59-1.54.58-1.18 1.16-2.36 1.75-3.54z" fill="#fefefe"/><path d="m308.63 262.22c2 1.93 4.03 4.4 6.58 5.56 2.4 1.09 5.11 1.73 7.66 2.42.92-1.18 1.84-2.37 2.76-3.55 1.36.86 2.72 1.71 4.07 2.57-1.53 5.87-2.54 12.76-8.73 15.52-1.12-1.55-2.25-2.9-2.45-4.88-.9-3.23.43-6.72-3.52-7.9-3.65-1.79-6.49 1.91-9.2 3.76.73-4.55 1.57-9.07 2.83-13.5z" fill="#464647"/><path d="m331.6 262.01c4.07.48 7.01 2.57 10.01 5.18-2.2.53-4.45.83-6.67 1.3 1.64 1.23 3.23 2.51 4.86 3.74-.81.85-1.62 1.7-2.44 2.55 1.77 1 3.57 1.94 5.42 2.78.07 3.4.08 6.79.09 10.18.8-.48 1.6-.95 2.4-1.42.5 3.11.45 7.03 2.01 9.81 2.04 1.7 4.8 2.67 7.13 3.94-5.61 2.64-12.58-1.8-18.75-1.8 5.51 3.12 12.24 2.95 18.18 5.28 0 1.47-.01 2.95-.01 4.42-5.78-.88-11.53-2.09-17.16-3.7-4.69-1.2-6.61-6.04-11.13-8.23-8.82-4.99-17.99-9.56-26.41-15.2 4.27 1.15 8.11 3.16 12.13 4.91 3.81 1.62 7.49 1.35 11.52 1.28-.61-.76-1.22-1.52-1.81-2.29 6.19-2.76 7.2-9.65 8.73-15.52.57-2.42 1.19-4.83 1.9-7.21z" fill="#d64c4b"/><path d="m93.3 264.16c5.17-1.42 10.83 1.64 15.56 3.56-1.84.57-3.68 1.6-4.96 3.04 4.38 1.94 8.88 3.48 13.58 4.43l1.98.42c.59.83 1.17 1.66 1.74 2.49-3.87.36-7.86-.05-11.69.6-2.89.85-5.44 3.13-7.35 5.4-2.14 2.56-2.29 6.27-2.72 9.45-.87-.22-1.73-.43-2.59-.64-1.18 4.03.36 6.93 1.84 10.64l2.16-1.26c1.4.14 2.8.28 4.2.39 1.03 1.14 2.07 2.26 3.06 3.43-.54.47-1.07.95-1.6 1.43-1.49-.76-3-1.63-4.6-2.15-2.66.17-4.52 2.96-5.11 5.33-1.1 4.47-.26 10 3.32 13.18 1.31 1.19 2.83 1.48 4.54 1.04 1.58-1.07 2.87-2.73 4.14-4.15.39.82.8 1.64 1.23 2.45-1.34 1.87-2.9 3.65-4.38 5.41 2.99.32 5.98 1.99 8.34-.66 4.1-3.78 3.28-11.7 3.24-16.78.65 0 1.3 0 1.94-.01.58-1.4 1.1-2.86 1.84-4.19 3.46-1.44 7.88-1.1 11.59-1.16 3.29 16.58 2.38 34.15-6.18 49.07-1.26.2-2.53.41-3.8.55-8.26-.91-14.51-4.91-22.21-7.25 4.77 7.12 12.14 10.34 20.08 12.69-2.11.9-4.04 1.94-6.41 1.48-4.81-.91-9.27-3.16-14.05-4.28 3.34 4.34 7.89 5.23 12.75 7.05-4.71 2.17-8.75 2.57-13.69.88-9.7-3.23-15.35-11.48-20.54-19.73-5-7.9-6.49-17.5-8.4-26.64-1.95-14.21 0-29.74 6.98-42.43 3.32-6.1 9.31-11.47 16.17-13.08z" fill="#f7d5a4"/><path d="m297.47 263.82c-.96 3.94-4.89 1.69-7.53 1.23 2.48-.66 4.97-1.07 7.53-1.23z" fill="#d64c4b"/><path d="m256.82 267.33c2.88-.04 5.66.19 8.45.92-3.25 1.46-5.4.65-8.45-.92z" fill="#e5e4e3"/><path d="m297.34 267.8c-1.48 1.18-4.19.26-5.82-.25 1.15-.77 5.6-1.7 5.82.25z" fill="#d64c4b"/><path d="m351.02 266.64c.04 1.3.07 2.6.09 3.89-2.13-.41-4.22-.91-6.33-1.41 1.72-2.06 3.81-2.06 6.24-2.48z" fill="#d64c4b"/><path d="m108.86 267.72c3.49 1.74 6.03 4.64 8.62 7.47-4.7-.95-9.2-2.49-13.58-4.43 1.28-1.44 3.12-2.47 4.96-3.04z" fill="#464647"/><path d="m370.25 270.46c1.35 3.33 2.65 6.91 3.1 10.5.52 4.29-.12 8.56-.8 12.8-1.05.2-2.09.42-3.13.66-.41-6.56-1.06-13.22-2.22-19.69-.93-.62-1.88-1.21-2.85-1.78.92 7.34 2.06 14.71 3.46 21.96-3.71 1.2-7.39 2.48-11 3.95 2.9-2 5.85-3.81 9.02-5.35-1.05-6.94-2.35-13.84-3.32-20.8-1.23-.25-2.44-.59-3.64-1.03-1.13-.31-2.23-.66-3.3-1.12.82-.65 1.64-1.3 2.47-1.93 4.41-.08 7.97 2.72 12.21 1.83z" fill="#d64c4b"/><path d="m232.18 270.85c3.57-.48 6.95 1.44 8.11 4.89 1.05 3.06-.07 7.32-3.66 7.97-3.01.77-5.73-1.42-8.25-2.75-.28-2.41-.47-4.82-.73-7.23 1.43-1.01 2.88-2.27 4.53-2.88z" fill="#d64c4b"/><path d="m364.35 272.95c.97.57 1.92 1.16 2.85 1.78 1.16 6.47 1.81 13.13 2.22 19.69l-1.61.49c-1.4-7.25-2.54-14.62-3.46-21.96z" fill="#c62025"/><path d="m232.35 275.3c1.5-.14 3.03-.15 4.53-.17-.25 1.69-.5 3.37-.77 5.06-1.32-.17-2.65-.34-3.98-.51.05-1.46.08-2.93.22-4.38z" fill="#464647"/><path d="m375.74 276.06 1.75-.34c-.25 2.83-.55 5.67-.93 8.49-.4-2.71-.66-5.42-.82-8.15z" fill="#f7d5a4"/><path d="m259.23 276.25c1.77-1.18 2.93 1.6.83 2.01-1.14-.32-1.41-.99-.83-2.01z" fill="#f7d5a4"/><path d="m109.51 278.7c3.83-.65 7.82-.24 11.69-.6 5.68 8.22 9.1 18.1 11.4 27.75-3.71.06-8.13-.28-11.59 1.16-.74 1.33-1.26 2.79-1.84 4.19-.64.01-1.29.01-1.94.01l-.44-.93c-.3-3.11.63-5.21 2.15-7.77 1.95-2.9.93-7.11-1.16-9.61-1.38-.15-2.76-.15-4.14-.09-.36 2.97-.88 5.7-2.29 8.37-1.7-.52-3.47-1.24-5.25-1.41-1.85.47-3.59 1.6-5.25 2.52-.72.42-1.44.84-2.16 1.26-1.48-3.71-3.02-6.61-1.84-10.64.86.21 1.72.42 2.59.64.43-3.18.58-6.89 2.72-9.45 1.91-2.27 4.46-4.55 7.35-5.4z" fill="#e5e4e3"/><path d="m266.71 280.19c3-.06 5.35.76 7.92 2.21-2.65-.27-6.38.59-7.92-2.21z" fill="#d64c4b"/><path d="m91.97 283.15c-3.61 11.27-4.85 23.1-4.22 34.89.21 3.22 1 6.26 1.63 9.4v1.09c-1.38-1.75-2.71-3.36-3.08-5.64-1.71-8.72-1.27-18 .01-26.76.94-4.93 1.47-9.66 5.66-12.98z" fill="#aba9a6"/><path d="m91.97 283.15.6-.62c-.72 7.34-2.83 14.43-3.26 21.83-.92 7.76.38 15.34.07 23.08-.63-3.14-1.42-6.18-1.63-9.4-.63-11.79.61-23.62 4.22-34.89z" fill="#464647"/><path d="m290.05 287.35c1.51-.96 2.62.95 1.52 2.11-1.52.99-2.61-.95-1.52-2.11z" fill="#e5e4e3"/><path d="m375.56 287.62 1.72-.03c-.11 2.44-.26 4.88-.41 7.32-1.11-2.35-1.17-4.76-1.31-7.29z" fill="#f7d5a4"/><path d="m298.03 287.68c2.62.46 5.2 1.08 7.74 1.84 1.69 2.02 3.14 4.21 4.5 6.46-4.74-.4-9.32-1.46-13.87-2.8.41-1.87.96-3.7 1.63-5.5z" fill="#aba9a6"/><path d="m307.92 290.08c5.99 1.07 10.55 4.47 16.01 6.76-1.21.48-2.1 1.11-3.46.69-4.87-1.15-9.11-3.84-12.55-7.45z" fill="#d64c4b"/><path d="m113.64 292.81c1.38-.06 2.76-.06 4.14.09 2.09 2.5 3.11 6.71 1.16 9.61-1.52 2.56-2.45 4.66-2.15 7.77-1.59-3.19-3.57-6.09-5.44-9.1 1.41-2.67 1.93-5.4 2.29-8.37z" fill="#f7d5a4"/><path d="m233.1 295.12c1.35.36 2.67.8 3.99 1.26-.63.77-1.26 1.55-1.89 2.33-.91-.61-1.83-1.21-2.74-1.81z" fill="#d64c4b"/><path d="m296.09 294.89c.41 1.77.86 3.54 1.3 5.31.45-1.9.9-3.79 1.42-5.66 1.08 2.24 1.04 4.34.96 6.78-1.57-.66-3.13-1.32-4.68-2 .34-1.48.69-2.95 1-4.43z" fill="#e5e4e3"/><path d="m306.59 296.66c.31 3.93.09 7.82-.19 11.73-.46-1.58-.87-3.17-1.18-4.79.23-2.35.74-4.66 1.37-6.94z" fill="#fefefe"/><path d="m223.61 297.69c1.26 2.98 3.68 7.12-.72 8.76-.42-3.09-.75-5.88.72-8.76z" fill="#464647"/><path d="m308.34 297.43c1.57 4.1 1.47 7.95-.07 12.02-.68-4.04-.75-7.99.07-12.02z" fill="#aba9a6"/><path d="m106.1 299.77c1.78.17 3.55.89 5.25 1.41 1.87 3.01 3.85 5.91 5.44 9.1l.44.93c-1.01.52-2.03 1.04-3.04 1.57-.18-3.56-.52-6.78-3.47-9.23-1.68-.78-3.86-.64-5.67-.87-1.4-.11-2.8-.25-4.2-.39 1.66-.92 3.4-2.05 5.25-2.52z" fill="#464647"/><path d="m310.76 299.15c4 1.13 8.81 2.36 11.98 5.15 1.61 2.79 1.46 6.72 2.43 9.79.24-2.74.56-5.44.93-8.17 1.98.54 2.72 2.18 4.28 3.29 3.5-.94 6.05-1.82 9.7-.69.37 2.17.78 4.33 1.17 6.49 7.35 1.56 16.8-.6 22.72 4.02 2.47 1.53 1.94 4.38 2.4 6.89-1.45-.01-2.9-.03-4.35-.04-.34-1.95-.68-3.9-1-5.86-7.47-.28-14.94-.18-22.41-.31.84 3.99.57 7.33-.4 11.26 3.83 2.16 8.61 2.56 9.39 7.62-4.81-.63-9.53-1.71-14.21-2.98-.76-3.55-.55-7.01-3.44-9.58-2.15-1.97-4.23-3.73-5.29-6.54-1.58-3.92-3.38-7.51-6.22-10.69-.71 4.16.02 8.1.2 12.23.16 1.74-1.48 3.01-2.42 4.33-2.52-4.79-1.46-9.15-1.35-14.24.38-2.38-3.32-2.72-4.85-3.49.4-2.81.41-5.66.74-8.48z" fill="#d64c4b"/><path d="m378.87 299.61c-.05 5.56.76 11.16 1.37 16.68-2.6 1-4.85 1.75-7.16-.37-3.29-3.17-2.63-9.64-.48-13.29 1.45-2.42 3.74-2.58 6.27-3.02z" fill="#e5e4e3"/><path d="m378.87 299.61c1.24.86 2.77 1.61 3.21 3.16 1.2 4.64 1.08 9.54-1.84 13.52-.61-5.52-1.42-11.12-1.37-16.68z" fill="#aba9a6"/><path d="m110.72 303.55c2.95 2.45 3.29 5.67 3.47 9.23 1.01-.53 2.03-1.05 3.04-1.57.04 5.08.86 13-3.24 16.78-2.36 2.65-5.35.98-8.34.66 1.48-1.76 3.04-3.54 4.38-5.41.86-5.23 1.59-12.69-1.92-17.13-.99-1.17-2.03-2.29-3.06-3.43 1.81.23 3.99.09 5.67.87z" fill="#464647"/><path d="m305.22 303.6c.31 1.62.72 3.21 1.18 4.79l.31 1.09c.82.4 1.64.79 2.47 1.16-.62 3.65-.49 7.29-.05 10.95.18 1.91.45 3.81.64 5.72l-1.01 1.1c-.92-1.03-2.49-2.15-2.59-3.62-.37-3.33.19-6.62-.81-10.03-.98-3.34-3.46-6.24-5.55-8.97-.39 1.25-.76 2.5-1.12 3.76-.9-2.32-1.55-4.75-2.03-7.19 2.91.23 5.69.75 8.56 1.24z" fill="#d64c4b"/><path d="m359.73 302.7c1.22-.3 2.5-.42 3.75-.58-.28 1.51-.57 3.03-.85 4.54-1.58-.31-3.16-.63-4.73-.96.58-1.01 1.14-2.06 1.83-3z" fill="#e5e4e3"/><path d="m366.83 301.72c.01 3.35-.43 5.17-2.23 7.96.09-3.06.52-5.38 2.23-7.96z" fill="#e5e4e3"/><path d="m101.91 305.39c1.6.52 3.11 1.39 4.6 2.15 1.35 4.35 1.69 8.77 2.29 13.25-1.27 1.42-2.56 3.08-4.14 4.15-1.71.44-3.23.15-4.54-1.04-3.58-3.18-4.42-8.71-3.32-13.18.59-2.37 2.45-5.16 5.11-5.33z" fill="#464647"/><path d="m108.11 306.11c3.51 4.44 2.78 11.9 1.92 17.13-.43-.81-.84-1.63-1.23-2.45-.6-4.48-.94-8.9-2.29-13.25.53-.48 1.06-.96 1.6-1.43z" fill="#fefefe"/><path d="m385.08 306.99c.62 1.28 1.29 2.71 2.31 3.72 2.4 1.71 5.53 2.39 8.05 3.94 1.54 2.98 1.38 7.08 1.61 10.38.45 5-3.16 9.9-5.85 13.85-2.15-1.19-4.22-2.52-6.32-3.8-2.44-1.49-5.63-1.95-8.36-2.81.3-2.89.57-5.79.82-8.69 1.9.3 3.81.62 5.7.95.82 1.61 1.64 3.21 2.49 4.79.43-4.4-.3-8.62-.9-12.95.17-3.14.54-6.23.45-9.38z" fill="#d64c4b"/><path d="m514.01 309.88c8.63-.67 17.42 2.44 23.72 8.39 7.4 6.85 11.57 15.83 14.75 25.23 2.85 8.88 4.56 18.16 4.65 27.5.04 11.59.57 22.2-3.96 33.16-2.61 7.1-7.41 12.65-13.64 16.86-2.1 1.11-4.32 2.04-6.51 2.98-3.88 1.66-7.61 3.09-11.93 2.71-6.84-.49-13.85-4-19.95-6.98 1.31-.41 2.61-.82 3.91-1.23-.62-.5-1.24-1-1.87-1.49-.65-.49-1.31-.98-1.97-1.46-5.69-7.15-9.64-14.53-12.73-23.12 2.74-.63 5.47-1.18 8.25-1.57 2.18 4.55 4.53 8.7 8.78 11.65 3.62 2.55 8.36 3.57 12.41 1.38 4.39-2.51 7.4-7.32 8.94-12.03 3.36-10.07 2.91-20.47 1.05-30.79-.91-5.06-2.64-9.82-4.74-14.51-2.36-5.28-5.29-10.27-10.46-13.24-4.4-2.43-9.95-1.72-13.53 1.85-5.34 4.84-6.29 11.08-8.95 17.46-1.79-.25-3.59-.5-5.38-.75.04-1.58.08-3.15.17-4.73 1.66-9.6 3.47-18.53 9.93-26.21 4.77-5.46 11.72-10.21 19.06-11.06z" fill="#464647"/><path d="m297.29 310.88c3.71 2.8 3.84 6.56 1.23 10.25-1.01-3.38-1.74-6.72-1.23-10.25z" fill="#f7d5a4"/><path d="m215.5 312.88c1.72 3.34 2.6 6.83 3.02 10.55-1.45-3.42-2.46-6.87-3.02-10.55z" fill="#d64c4b"/><path d="m233.03 316.03c1.02-.59 2.04-1.18 3.07-1.78.39 1.68.78 3.36 1.22 5.03-1.43-1.09-2.85-2.17-4.29-3.25z" fill="#f7d5a4"/><path d="m113.9 316.01c-.18 3.37-.79 6.27-2.03 9.4.45-3.2 1.12-6.3 2.03-9.4z" fill="#e5e4e3"/><path d="m384.63 316.37c-.39 1.95-.76 3.9-1.14 5.85-2.01-.32-4.02-.55-6.03-.92 2.15-2.47 3.94-4.1 7.17-4.93z" fill="#d64c4b"/><path d="m291.56 317.92c.52 1.57.99 3.14 1.46 4.72-1.06-.06-2.11-.12-3.17-.19.57-1.51 1.13-3.02 1.71-4.53z" fill="#464647"/><path d="m309.13 321.59c.8.67 1.57 1.37 2.3 2.11.94 1.42-1.02 2.44-1.66 3.61-.19-1.91-.46-3.81-.64-5.72z" fill="#464647"/><path d="m223.72 322.65c.19 4.37.02 8.52-2.06 12.47.69-4.18.93-8.36 2.06-12.47z" fill="#f7d5a4"/><path d="m375.42 323.29 1.92.29c-.25 2.9-.52 5.8-.82 8.69-.89-2.94-1.02-5.93-1.1-8.98z" fill="#aba9a6"/><path d="m358.12 326.7c2.92-.01 5.51.8 8.28 1.59.81 4.94 1.88 9.83 3.1 14.69-4.56-.39-8.79-1.18-13.18-2.48-.1-4.73-.56-9.48 1.8-13.8z" fill="#d64c4b"/><path d="m324.28 333.98c-7.71.37-15.62-2.39-23.18-3.77 7.9.29 15.5 2.04 23.18 3.77z" fill="#aba9a6"/><path d="m291.13 331.17c6.8.91 13.48 2.35 20.21 3.62 5.31 1.02 10.57 1.63 15.8 3.08-5.33 1.14-10.04-.74-15.37-1.63-6.98-1.28-13.83-3.07-20.64-5.07z" fill="#fefefe"/><path d="m512.71 333.32c5.17 2.97 8.1 7.96 10.46 13.24-.47.85-.94 1.7-1.41 2.56-1.32-2.5-2.92-4.82-4.64-7.05l-1.14-1.44-.89.32c-1.73.62-3.45 1.24-5.18 1.86-.37-.65-.74-1.29-1.11-1.94 1.95-.95 3.96-1.78 5.91-2.73-1.95-.6-4.38-2.01-6.39-1.68-4.49 1.81-8.43 6.51-8.15 11.57-.05 4.1 1.85 7.24 3.76 10.69l-.95.9c-.51 2.68.95 5.61 1.18 8.33.33 3.77.18 7.6.1 11.38-.21 1.96-.63 3.93-1.11 5.85-.47 1.43-.97 2.94-1.75 4.23-1.16 1.03-3.2 1.11-4.67 1.45-2.78.39-5.51.94-8.25 1.57-4.5.96-8.9.71-13.46.47.28-2.23.59-4.48.74-6.73l.64.34c.79 1.2 1.51 2.47 2.4 3.59 1.28.33 2.78.11 4.08-.04 5.66-.83 11.28-1.91 16.79-3.46 2.53-9.01 3.59-20.42-1.25-28.85-1.36-2.92-5.31-2.45-7.56-.96-1.74 2.81-2.63 6.72-1.69 9.94.51 2.57 1.89 4.26.3 6.71.75 1.95 1.51 4.42 3.09 5.83 1.17.38 2.42.57 3.63.82-.96.32-1.95.64-2.91.96.22 1.53.27 2.88.1 4.42-3.26-3.64-4.69-8.24-5.7-12.93-1.01-5 .56-10.67 1.38-15.66-5.87.05-11.78.76-17.64.44-4.24-.2-7.29-2.28-11.22-3.53-2.52-.85-5.44-.43-8.07-.26 4.1-1.59 7.99-3.45 11.31-6.38-2.56.02-5.12.1-7.68.39 5.56-.89 10.89-2.04 15.63-5.25 3.24 2.79 4.75 6.37 6.23 10.27 2.04-.35 4.07-.72 6.1-1.08.45-1.44.91-2.88 1.3-4.33-.09 1.58-.13 3.15-.17 4.73 1.79.25 3.59.5 5.38.75 2.66-6.38 3.61-12.62 8.95-17.46 3.58-3.57 9.13-4.28 13.53-1.85z" fill="#aba9a6"/><path d="m350.3 336.28c1.46.17 2.93.48 4.36.77.15.96.31 1.92.46 2.89-1.76-.09-3.51-.17-5.26-.26.12-1.13.27-2.27.44-3.4z" fill="#d64c4b"/><path d="m508.32 336.46c2.01-.33 4.44 1.08 6.39 1.68-1.95.95-3.96 1.78-5.91 2.73.37.65.74 1.29 1.11 1.94 1.73-.62 3.45-1.24 5.18-1.86-3.91 4.72-5.8 9.29-6.22 15.45 4.63-3.58 7.04-8.72 8.25-14.33 1.72 2.23 3.32 4.55 4.64 7.05 3.67 7.63 5.18 16.43 5.2 24.85-.56 1.04-1.15 2.19-1.97 3.06-1.11.32-2.27.49-3.41.69.67-2.68 2.06-5.95 1.28-8.7-1.28-4.6-3.33-8.84-7.72-11.18-3.75.13-7.5.39-11.21.88-1.91-3.45-3.81-6.59-3.76-10.69-.28-5.06 3.66-9.76 8.15-11.57z" fill="#d64c4b"/><path d="m515.09 340.95.89-.32 1.14 1.44c-1.21 5.61-3.62 10.75-8.25 14.33.42-6.16 2.31-10.73 6.22-15.45z" fill="#f7d5a4"/><path d="m209.61 343.31c6.4-.63 12.85.34 19.38.28 6.72-.09 13.36.78 20.07.86-2.1.19-4.21.34-6.31.54.87.81 1.73 1.62 2.6 2.43l-1.4-.13c-5.13-3.47-11.65-3.47-17.56-2.66-2.85 4.22-.03 6.67 2.39 10.02 1.85-1.91 3.66-3.85 5.47-5.8 2.16 2.34 4.85 4.73 6.23 7.62 1.08 3.7.61 7.95.78 11.78-5.76-1.64-11.52-1.43-17.41-.8-5.92.62-11.97-.81-17.8.04-2.45.14-3.19 3.46-4.43 5.17l-.41-.92c-.7-3.28-1.24-6.57-2.14-9.81 2.25-3.33 4.91-6.37 7.18-9.69 1.86-2.77 2.37-5.79 3.36-8.93z" fill="#fefefe"/><path d="m351.81 343.16c7.4.45 14.89 2.55 22.19 3.94 5.93 1.29 11.48 1.53 17.18 3.47-7.06.43-13.1-2-19.98-2.98-6.4-1.22-13.34-2.06-19.39-4.43z" fill="#e5e4e3"/><path d="m268.42 347.62c-5.02 1.07-9.37 1.07-14.22-.73 4.94-.99 9.45-.93 14.22.73z" fill="#f7d5a4"/><path d="m245.35 347.42c1.87.2 3.64.29 5.46.8 4.82 1.15 8.14 4.31 13.16 4.87 7.37 1.26 14.12-.33 20.73-3.54 1.11.23 2.22.47 3.33.71-7.32 4.09-15.17 5.37-23.29 6.93-7.73-1.21-14.95-4.71-20.79-9.9z" fill="#f7d5a4"/><path d="m523.17 346.56c2.1 4.69 3.83 9.45 4.74 14.51 1.86 10.32 2.31 20.72-1.05 30.79-1.54 4.71-4.55 9.52-8.94 12.03-4.05 2.19-8.79 1.17-12.41-1.38-4.25-2.95-6.6-7.1-8.78-11.65 1.47-.34 3.51-.42 4.67-1.45.78-1.29 1.28-2.8 1.75-4.23 1.4.57 2.79 1.14 4.19 1.7.35-1.17.69-2.35 1.04-3.52 2.06 1.66 4.13 3.29 6.22 4.9-1.74-4.31-2.98-8.3-7.15-10.91.37-3.87 1.12-7.83-.17-11.61-.82-2.52-2.49-4.26-4.3-6.12l.95-.9c3.71-.49 7.46-.75 11.21-.88 2.1 4.13 4.91 9.61 3.87 14.36-1.04 2.25-3.85 3.82-5.73 5.36 1.49 4.62 6.16 10.05 4.54 14.89-.53 2.42-1.7 4.45-2.81 6.63 2.52-.08 4.33.2 5.96-2.13 4.68-6.2 5.83-15.43 5.99-22.98-.02-8.42-1.53-17.22-5.2-24.85.47-.86.94-1.71 1.41-2.56z" fill="#f7d5a4"/><path d="m100.41 348.22c7.7 2.34 13.95 6.34 22.21 7.25-.4 2.03-1.01 3.68-2.13 5.44-7.94-2.35-15.31-5.57-20.08-12.69z" fill="#464647"/><path d="m292.45 347.83c-2.83 4.19-7.05 6.16-11.58 8.02-5.17 2.04-10.69 2.29-16.13 1.34 8.12-1.56 15.97-2.84 23.29-6.93-1.11-.24-2.22-.48-3.33-.71 2.49-1.07 5.07-1.46 7.75-1.72z" fill="#aba9a6"/><path d="m468.29 351.35c3.73 1.86 7.1 2.8 11.23 3.49-5.23 2.95-10.54.59-15.88-.79 1.56-.87 3.01-1.99 4.65-2.7z" fill="#464647"/><path d="m364.31 357.13c3.88.52 7.73 1.23 11.6 1.82 6.57 1.06 12.88 1.28 19.19 3.64-1.25.18-2.51.33-3.77.46-8.11-.13-16.15-.8-24.26-.18-.89-1.93-1.86-3.82-2.76-5.74z" fill="#fefefe"/><path d="m484.12 357.92c.59 2.79.66 5.16-.02 7.95-.94 1.41-2.23 2.87-2.73 4.51-.62 2.76-.04 5.89.74 8.57 1.17 1.42 2.52 2.77 3.51 4.31.47 1.67-.61 3.68-1.91 4.68-2.49.84-5.05-.47-7.31-1.43l-.64-.34c-2.13-1.38-4.36-.48-6.69-.15-6.17 1.37-12.37 2.67-18.52 4.18 1.56-2.4 3.2-4.55 3.89-7.39-2.5 1.19-4.96 2.07-7.68 2.6 1.64-1.7 3.45-3.3 5.32-4.75-1.76-.07-3.51-.13-5.27-.13 2.46-1.38 4.71-3.01 6.89-4.79-3.42-2.03-6.47-1.32-10.17-.74.55-.81 1.08-1.62 1.61-2.43-2.4-1.39-4.56-2.86-7.4-3.2-4.18-.55-8.81 1.47-12.76 2.71.3-.76.61-1.52.92-2.28 6.75-2.58 11.79-2.91 18.86-1.32.81.6 1.63 1.19 2.44 1.78 5.72.3 10.64-1.55 16.37.11 3.08.62 7.66 2.32 10.56.67 3.28-1.92 1.34-7.39 2.77-10.23 1.93-1.6 4.87-2.13 7.22-2.89z" fill="#c62025"/><path d="m515.14 357.84c4.39 2.34 6.44 6.58 7.72 11.18.78 2.75-.61 6.02-1.28 8.7 1.14-.2 2.3-.37 3.41-.69.82-.87 1.41-2.02 1.97-3.06-.16 7.55-1.31 16.78-5.99 22.98-1.63 2.33-3.44 2.05-5.96 2.13 1.11-2.18 2.28-4.21 2.81-6.63 1.62-4.84-3.05-10.27-4.54-14.89 1.88-1.54 4.69-3.11 5.73-5.36 1.04-4.75-1.77-10.23-3.87-14.36z" fill="#aba9a6"/><path d="m422.52 359.6c.61 1.37 1.23 2.74 1.86 4.11 2.8-.24 5.7-.67 8.5-.47 2.92.56 5.43 2.71 8.33 3.45 2.92.67 5.96.81 8.93 1.23-1.8.16-3.59.37-5.38.56-7.07-1.59-12.11-1.26-18.86 1.32l.28-.65c1.96-1.23 4.01-2.33 6.01-3.52-8.05-.58-16.13 3.68-18.38 11.73-.74-.29-1.48-.58-2.22-.87.16-4.52-.65-9.38.2-13.81 1.68-3.01 7.7-2.61 10.73-3.08z" fill="#aba9a6"/><path d="m461.92 360.19c2.28.53 4.26 1.31 6.31 2.41-2.48-.32-4.54-.4-6.31-2.41z" fill="#e5e4e3"/><path d="m470.82 360.21c.69-.94 2.59-1 3.33-.1.49 1.58-3.71 1.7-3.33.1z" fill="#aba9a6"/><path d="m502.98 359.62c1.81 1.86 3.48 3.6 4.3 6.12 1.29 3.78.54 7.74.17 11.61-1.07.66-2.13 1.32-3.19 1.98.08-3.78.23-7.61-.1-11.38-.23-2.72-1.69-5.65-1.18-8.33z" fill="#464647"/><path d="m319.41 362.33c3.64-1.49 7.52-.56 10.65 1.61 5.68 3.95 8.99 10.21 11.51 16.47 4.47 11.61 6.49 24.21 6.18 36.63-.1 6.69-2.09 13.26-6.02 18.7-2.84 3.9-8.18 6.23-12.88 4.5-5.1-1.91-9.24-6.58-11.9-11.2-5.13-8.97-8.19-19.25-9.35-29.49-.99-8.47-.45-17.51 2.38-25.61 1.71-4.69 4.62-9.61 9.43-11.61z" fill="#f7d5a4"/><path d="m391.33 363.05c-.45 3.04-.24 6.82-3.39 8.46-3.22 1.22-6.89 1.42-10.26 2.08 1.97.26 3.94.54 5.91.83-3.55 1.88-6.99 1.96-10.9 1.82-.21-.92-.45-1.83-.69-2.75.42-.32.85-.64 1.27-.96-3.23-2.58-4.64-5.96-6.2-9.66 8.11-.62 16.15.05 24.26.18z" fill="#aba9a6"/><path d="m325.14 364.9c1.98 1.51 3.24 4.08 4.79 6.02-3.87 1.97-6.08 3.9-8.01 7.83 4.78-.75 8.53-2.13 12.68-4.59 1.14 1.69 1.32 3.56 1.62 5.53-3.67.51-6.67.76-9.23 3.75 1.32.39 2.65.77 3.97 1.15-.47 1.6-.82 3.34-1.61 4.82-1.95.64-4.25.59-6.29.72.08 1.98.16 3.96.33 5.94.16 1.61.36 3.2.56 4.8 1.49-1.34 2.98-2.69 4.47-4.03-.28 1.33-.56 2.65-.85 3.97.65 1.09 1.3 2.17 1.95 3.26-.22.53-.45 1.05-.68 1.58-1.69-.8-3.39-1.6-5.1-2.38 1.05 2.41 2.03 5.27 3.82 7.23 2.14 2.27 6.62 1.56 7.54-1.58 2.23-5.32.86-10-.52-15.27.13-1.78.42-3.59.68-5.36 1.46.33 2.92.65 4.39.97-.12-3.03-1.31-4.84-3.14-7.15.85-.67 1.7-1.35 2.54-2.03 1.85 8.09 5.61 15.27 5.64 23.41.25 6.23 1.09 12.46-.62 18.52-4.34.95-8.6 2.16-12.71 3.86 2.91 2.52 4.41 3.4 8.37 3.3-1.25 1.07-2.84 2.05-3.76 3.41-.27 1.36 0 2.83-.06 4.22-2.21.37-5.05 1.08-7.21.31-1.13-.71-1.82-2.11-2.65-3.12 1.5.33 3.01.67 4.51 1.03.3-.34.6-.69.9-1.03.9.18 1.8.35 2.7.53-3.66-4.65-8-8.44-11.21-13.38-1.36-2.08-2.94-3.85-4.77-5.52.56 3.9 1.26 7.72 1.12 11.69-3.94-4.28-6.05-9.5-7.56-15.04-3.23-11.81-4.28-24.96-.2-36.7 1.31-3.69 2.85-7.47 6.5-9.4 2.01-1.03 4.87-2.04 7.1-1.27z" fill="#f7d5a4"/><path d="m249.9 365.06c3.05 1.87 5.93 3.9 8.35 6.55-6.84 1.98-13.19.76-20.19 1.55-3.93.34-7.53 1.52-11.28 2.67-8.45 2.69-17.63 4.1-26.36 5.82-2.53.53-4.88 1.14-6.94 2.78-2.2 1.69-3.37 4.32-4.71 6.68.06-1.73.12-3.46.18-5.19 4.19-4.78 9.09-8.51 12.26-14.18l.41.92c1.24-1.71 1.98-5.03 4.43-5.17 5.83-.85 11.88.58 17.8-.04 5.89-.63 11.65-.84 17.41.8 1.65.81 3.28 1.75 4.88 2.66 1.23-1.96 2.43-3.95 3.76-5.85z" fill="#e5e4e3"/><path d="m432.19 365.63c-2 1.19-4.05 2.29-6.01 3.52-4.7 2.67-7.3 6.53-12.37 8.21 2.25-8.05 10.33-12.31 18.38-11.73z" fill="#464647"/><path d="m484.1 365.87c.27 4.78.94 9.58 1.51 14.34-1.17-.42-2.33-.84-3.5-1.26-.78-2.68-1.36-5.81-.74-8.57.5-1.64 1.79-3.1 2.73-4.51z" fill="#fefefe"/><path d="m450.14 367.92c1.08.12 2.16.28 3.23.48-2.04.7-4.06 1.39-6.17 1.86-.81-.59-1.63-1.18-2.44-1.78 1.79-.19 3.58-.4 5.38-.56z" fill="#fefefe"/><path d="m426.18 369.15-.28.65c-.31.76-.62 1.52-.92 2.28 3.95-1.24 8.58-3.26 12.76-2.71 2.84.34 5 1.81 7.4 3.2-.53.81-1.06 1.62-1.61 2.43-.52.76-1.06 1.51-1.59 2.26.1.85.21 1.7.32 2.56-3.08-1.35-7.05-3.74-10.49-3.3-5.18 2.17-5.51 9.36-2.92 13.65 1.33 2.7 4.44 2.37 6.98 3.02l-1.2-.74c2.03-2.38 3.94-4.84 5.82-7.34 1.15-1.49 2.34-2.95 3.53-4.41.94-.07 1.89-.12 2.83-.17 1.76 0 3.51.06 5.27.13-1.87 1.45-3.68 3.05-5.32 4.75 2.72-.53 5.18-1.41 7.68-2.6-.69 2.84-2.33 4.99-3.89 7.39-.94 3.17-1.57 6.26-3.14 9.23-2.08 4.14-5.26 7.25-8.84 10.11-4.41 1.03-8.71 1.96-13-.08-5.01-2.2-7.68-7.25-10.74-11.48-8.42 1.57-16.89 3.23-25.18 5.37-1.2 2.23-2.43 4.43-3.97 6.46-2.32.05-4.64.16-6.96.16.05-3 .38-5.66 1.9-8.3 1.91-3.55 3.09-7.06 1.75-11.08-.46-1.94-1.87-2.62-3.5-3.42l-1.92-.85c-.08-4.03.58-5.73 3.03-8.91 2.47.88 4.74 2.16 7.13 3.23 2.1 1.06 4.85.44 7.12.3 6.49-.81 13.34-1.63 19.58-3.58 5.07-1.68 7.67-5.54 12.37-8.21z" fill="#d64c4b"/><path d="m258.25 371.61c.8 2.18 1.16 4.54 1.62 6.81 1.68.48 3.44 1.14 5.19 1.24 2.24-.8 4.2-2.08 6.3-3.13-1.15 1.79-2.27 3.6-3.42 5.4 6.94 1.58 13.94 1.97 21 2.44 3.23.1 7.68.21 10.39-1.84 1.43-1.52 1.8-4.18 2.48-6.11-2.59 16.65-.37 33.66 5.37 49.44-.83.77-1.66 1.54-2.49 2.3-7.83-1.51-15.75-1.95-23.63-3.06-11.86-2.13-23.71-2.12-35.8-3.38-9.98-1.1-19.17.18-29.25.62-8.79.36-17.36 1.79-26.18 1.29-12.75-.55-24.79.94-37.15-1.2-9.69-1.75-19.46-.94-29.1-2.9-4.34-.78-8.48-2.16-12.72-3.28 3.83-.35 7.53-.36 11.31.47 7.91 1.7 16.62 1.17 24.69.74 6.04-.42 11.27-1.99 16.19-5.59-1.37-.46-2.74-.91-4.11-1.36 9.42-5.34 18.68-9.18 26.85-16.7 2.17-1.97 2.34-5.2 3.16-7.89-.06 1.73-.12 3.46-.18 5.19 1.34-2.36 2.51-4.99 4.71-6.68 2.06-1.64 4.41-2.25 6.94-2.78 8.73-1.72 17.91-3.13 26.36-5.82 3.75-1.15 7.35-2.33 11.28-2.67 7-.79 13.35.43 20.19-1.55z" fill="#aba9a6"/><path d="m329.93 370.92c1.55 1.09 3.12 2.15 4.67 3.24-4.15 2.46-7.9 3.84-12.68 4.59 1.93-3.93 4.14-5.86 8.01-7.83z" fill="#aba9a6"/><path d="m383.59 374.42c1.07.09 2 .4 2.77 1.17 2.37 2.17 5.06 3.83 7.87 5.35-2.27.14-5.02.76-7.12-.3-2.39-1.07-4.66-2.35-7.13-3.23-1.63.15-3.25.37-4.87.57-.64.88-1.28 1.76-1.92 2.65-.13-1.47-.28-2.93-.5-4.39 3.91.14 7.35.06 10.9-1.82z" fill="#fefefe"/><path d="m453.7 375.74c-2.18 1.78-4.43 3.41-6.89 4.79-.94.05-1.89.1-2.83.17-.57-.3-1.15-.59-1.72-.88-.11-.86-.22-1.71-.32-2.56.53-.75 1.07-1.5 1.59-2.26 3.7-.58 6.75-1.29 10.17.74z" fill="#f7d5a4"/><path d="m431.77 376.52c3.44-.44 7.41 1.95 10.49 3.3.57.29 1.15.58 1.72.88-1.19 1.46-2.38 2.92-3.53 4.41-.85-1.85-1.71-3.69-2.55-5.54-2.6.05-5.19.13-7.78.38-.81 2.96-1.67 6.16-.14 9.05 1.19 1.47 3.09 2.42 4.65 3.45l1.2.74c-2.54-.65-5.65-.32-6.98-3.02-2.59-4.29-2.26-11.48 2.92-13.65z" fill="#464647"/><path d="m507.45 377.35c4.17 2.61 5.41 6.6 7.15 10.91-2.09-1.61-4.16-3.24-6.22-4.9-.35 1.17-.69 2.35-1.04 3.52-1.4-.56-2.79-1.13-4.19-1.7.48-1.92.9-3.89 1.11-5.85 1.06-.66 2.12-1.32 3.19-1.98z" fill="#d64c4b"/><path d="m430.12 379.95c2.59-.25 5.18-.33 7.78-.38.84 1.85 1.7 3.69 2.55 5.54-1.88 2.5-3.79 4.96-5.82 7.34-1.56-1.03-3.46-1.98-4.65-3.45-1.53-2.89-.67-6.09.14-9.05z" fill="#e5e4e3"/><path d="m426.68 381.49c-.56.52-1.14 1.02-1.72 1.52-8.71 1.86-17.26 4.31-25.99 6.02-.59-.82-1.17-1.64-1.75-2.46 9.61-2.59 19.56-4.19 29.46-5.08z" fill="#c62025"/><path d="m424.96 383.01c-2.71 2.65-7.56 2.73-11.12 3.56-7 1.06-12.6 3.78-19.66 2.21.31-.57.62-1.15.92-1.73.71-.16 1.42-.32 2.12-.48.58.82 1.16 1.64 1.75 2.46 8.73-1.71 17.28-4.16 25.99-6.02z" fill="#fefefe"/><path d="m74.01 384.99c.47 3 .92 5.99 1.57 8.96.4-.99.79-1.99 1.16-3 .25 3.32 1.89 5.1 4.14 7.3 1.76-1.37 3.5-2.75 5.24-4.15 3.14 2.63 6.34 4.3 6.99 8.76.17.8.34 1.6.5 2.41-1.46-.76-2.91-1.55-4.41-2.22-1.22.6-2.42 1.28-3.61 1.94 3.36 5.7 8.77 6.92 14.52 9.15 3.51 1.28 7.09 1.59 10.75 2.11 4.24 1.12 8.38 2.5 12.72 3.28 9.64 1.96 19.41 1.15 29.1 2.9 12.36 2.14 24.4.65 37.15 1.2 8.82.5 17.39-.93 26.18-1.29 10.08-.44 19.27-1.72 29.25-.62 12.09 1.26 23.94 1.25 35.8 3.38 7.88 1.11 15.8 1.55 23.63 3.06.83-.76 1.66-1.53 2.49-2.3 2.9 8.13 7.01 15.87 12.19 22.78 4.26 5.61 10.06 10.83 16.73 13.33 5.59 1.97 12 2.57 17.35-.45 6.49-3.57 13.63-8.06 17.51-14.56 4.04-6.64 6.12-14.6 7.09-22.25.54 2.7 1.05 5.95 2.71 8.22 4.67-.06 9.31-1.86 13.95-2.43 5.17-.74 9.75-1.95 13.77-5.47-2.25-2.11-4.41-4.08-7.48-4.93-5.97-1.75-12.24-2.45-18.31-3.86 1.37-1.01 2.72-2.06 4.09-3.07-2.77.06-5.55-.05-8.32-.14 2.2-1.39 4.78-2.32 7.22-3.22 1.54-2.03 2.77-4.23 3.97-6.46 8.29-2.14 16.76-3.8 25.18-5.37 3.06 4.23 5.73 9.28 10.74 11.48 4.29 2.04 8.59 1.11 13 .08 3.71 2.57 7.32 1.69 11.56 2.19 15.49 1.16 30.07 3.86 45.32.28 1.88 1.25 3.81 2.4 5.76 3.54.66.48 1.32.97 1.97 1.46-2.61.15-5.15.52-7.7 1.04 1.85 1.83 3.81 3.36 6.26 4.32 6.72 2.77 14.12 5.97 21.4 6.57 3.76.37 7.03-.7 10.56-1.79-.23-1.05-.46-2.1-.68-3.15 2.19-.94 4.41-1.87 6.51-2.98.97.5 1.95 1 2.92 1.51.44-.64.87-1.27 1.3-1.91 2.42 2.13 4.64 4.46 7.05 6.59 2.16 1.91 4.73 3.35 6.84 5.3.13 1.33-.03 2.08-1.08 2.99-2.67 2.59-6.4 2.63-9.85 3.27-3.8.54-7.32 1.9-11.02 2.82-2.64.71-5.1-.4-7.77-.38-2.26.06-4.56.56-6.82.49-1.73-.38-3.41-1.16-5.05-1.83-7.7 2.72-17.34.82-25.05-1.07-2.96-.65-5.59-.03-8.52.31-5.08.77-10.12-1.12-15.44-1.42-6.85-.6-13.08 1.16-19.91 2.32-4.72.75-8.26 3.67-12.76 4.87-10.34 2.31-19.47 1.5-29.17 5.19-7.41 2.47-12.13 7.72-18.88 12.08-6.51 4.28-14.21 9.5-22.25 9.67-9.22.22-18.44-1.14-26.99-4.68-10.47-2.42-20.59-5.81-30.64-9.57-4.29-1.7-6.32-5.28-10.11-7.93-6.09-4.57-15.08-5.65-22.36-7.52-13.08-1.98-26.21-3.66-39.27-5.78-7.55-1.37-15.19-1.06-22.76-2.21-5.04-.78-10.11-.84-15.2-.83-8.62.03-17.14-1.21-25.76-1.18-8-.02-15.6-1.91-23.56-2.43-4.67-.31-9.24-1.03-13.82-1.95-4.86-.96-9.62-.91-14.2-2.37-2.68-.82-5.08-1.86-7.89-2.19-2.93-.34-5.75-.39-8.61-1.27-11.91-3.91-23.69-8.18-35.59-12.11-1.88-.78-4.64-1.55-5.81-3.32-2.52-4.71-2.64-10.86.81-15.16 1.86-2.69 6.18-2.1 9.09-2.39.86-1.31 1.73-2.63 2.61-3.94z" fill="#e5e4e3"/><path d="m475.76 386.17c-.15 2.25-.46 4.5-.74 6.73 4.56.24 8.96.49 13.46-.47 3.09 8.59 7.04 15.97 12.73 23.12-1.95-1.14-3.88-2.29-5.76-3.54-15.25 3.58-29.83.88-45.32-.28-4.24-.5-7.85.38-11.56-2.19 3.58-2.86 6.76-5.97 8.84-10.11 1.57-2.97 2.2-6.06 3.14-9.23 6.15-1.51 12.35-2.81 18.52-4.18 2.33-.33 4.56-1.23 6.69.15z" fill="#fefefe"/><path d="m376.95 386.32 1.92.85c2.84 5.72 2.76 9.49-.01 15.19-1.42-4.94-3.18-10.93-1.91-16.04z" fill="#fefefe"/><path d="m320.51 388.96c.72 3.62 1.09 7.28 1.49 10.95.67 6.61 3.82 12.42 3.94 19.16-2.94-3.34-5.03-7.16-5.28-11.68-.35-6.12-.23-12.3-.15-18.43z" fill="#d64c4b"/><g fill="#aba9a6"><path d="m334.58 393.65c1.38 5.27 2.75 9.95.52 15.27-.92 3.14-5.4 3.85-7.54 1.58-1.79-1.96-2.77-4.82-3.82-7.23 1.71.78 3.41 1.58 5.1 2.38.23-.53.46-1.05.68-1.58-.65-1.09-1.3-2.17-1.95-3.26.29-1.32.57-2.64.85-3.97-1.49 1.34-2.98 2.69-4.47 4.03-.2-1.6-.4-3.19-.56-4.8 3.69-1.12 7.35-1.93 11.19-2.42z"/><path d="m89.2 403.05c1.5.67 2.95 1.46 4.41 2.22-.16-.81-.33-1.61-.5-2.41.58 1.83 1 4.23 2.35 5.65 2.37 1.45 5.69 1.52 8.39 2.05 1.97 2.88 3.77 4.31 7.01 5.69-3.66-.52-7.24-.83-10.75-2.11-5.75-2.23-11.16-3.45-14.52-9.15 1.19-.66 2.39-1.34 3.61-1.94z"/><path d="m378.46 413.03c2.77.09 5.55.2 8.32.14-1.37 1.01-2.72 2.06-4.09 3.07 6.07 1.41 12.34 2.11 18.31 3.86 3.07.85 5.23 2.82 7.48 4.93-4.02 3.52-8.6 4.73-13.77 5.47-4.64.57-9.28 2.37-13.95 2.43-1.66-2.27-2.17-5.52-2.71-8.22.46-4.09-.51-7.86 3.27-10.58-.97-.32-1.92-.71-2.86-1.1z"/><path d="m503.18 417.01c.63.49 1.25.99 1.87 1.49-1.3.41-2.6.82-3.91 1.23 6.1 2.98 13.11 6.49 19.95 6.98 4.32.38 8.05-1.05 11.93-2.71.22 1.05.45 2.1.68 3.15-3.53 1.09-6.8 2.16-10.56 1.79-7.28-.6-14.68-3.8-21.4-6.57-2.45-.96-4.41-2.49-6.26-4.32 2.55-.52 5.09-.89 7.7-1.04z"/><path d="m344.07 422.01c-1.16 2.55-2.59 4.96-4.34 7.16-3.96.1-5.46-.78-8.37-3.3 4.11-1.7 8.37-2.91 12.71-3.86z"/></g></svg>